<svg xmlns="http://www.w3.org/2000/svg" viewBox="0 0 139.67 125.37"><defs><style>.bc878f88-5ecd-4d0b-9f4f-93a0baf5713c,.e8875d65-755a-4ddb-b103-1689084b6f50{fill:#fff;}.e8875d65-755a-4ddb-b103-1689084b6f50{fill-rule:evenodd;}</style></defs><g id="a50afb5c-4a0d-4441-8ee6-07049c077270" data-name="Layer 2"><g id="adbdbb84-b32d-4716-b57a-f3c4d98b4c37" data-name="Layer 1"><path class="bc878f88-5ecd-4d0b-9f4f-93a0baf5713c" d="M9.76,108.82a5.52,5.52,0,0,0,.22-1.64v-2.85a.93.93,0,0,0-.93-.93H8.87a.93.93,0,0,0-.93.93v2.8a3.4,3.4,0,0,1-.1.92,1.23,1.23,0,0,1-.3.58,1.1,1.1,0,0,1-.5.3,3.11,3.11,0,0,1-.72.08H3.53a2.81,2.81,0,0,1-.7-.08,1.16,1.16,0,0,1-.5-.3,1.32,1.32,0,0,1-.29-.58,3.91,3.91,0,0,1-.09-.92v-2.8a.93.93,0,0,0-1.86,0v2.85A4.07,4.07,0,0,0,1,110a3.5,3.5,0,0,0,2.7,1H6.39A4.36,4.36,0,0,0,8,110.79,2.87,2.87,0,0,0,9.08,110,3.15,3.15,0,0,0,9.76,108.82Z"></path><path class="bc878f88-5ecd-4d0b-9f4f-93a0baf5713c" d="M22.44,99.44a1,1,0,0,0-1,1v7.17a1.81,1.81,0,0,1-.08.51,1.22,1.22,0,0,1-.24.45,1.45,1.45,0,0,1-.46.32,1.83,1.83,0,0,1-.7.12h0a1.24,1.24,0,0,1-1-.34,1.68,1.68,0,0,1-.3-1.1V104.4a1,1,0,0,0-2,0v3.17a1.65,1.65,0,0,1-.29,1.1,1.19,1.19,0,0,1-1,.34h0a2.25,2.25,0,0,1-.69-.08,1.05,1.05,0,0,1-.45-.22.85.85,0,0,1-.24-.35,1.23,1.23,0,0,1-.08-.44v-7.48a1,1,0,1,0-2,0v7.5a3.07,3.07,0,0,0,.3,1.42,2.7,2.7,0,0,0,.79,1,3.25,3.25,0,0,0,1.1.55,5,5,0,0,0,1.26.17h0a3.26,3.26,0,0,0,.7-.07,2.75,2.75,0,0,0,.69-.21,2.54,2.54,0,0,0,.63-.37,3,3,0,0,0,.54-.52,2.17,2.17,0,0,0,.81.88,2.24,2.24,0,0,0,1.13.29h0a4.15,4.15,0,0,0,1.26-.2,3.11,3.11,0,0,0,1.11-.62,3.06,3.06,0,0,0,.8-1.06,3.41,3.41,0,0,0,.31-1.52v-7.21A1,1,0,0,0,22.44,99.44Z"></path><path class="bc878f88-5ecd-4d0b-9f4f-93a0baf5713c" d="M54.32,99.44a1,1,0,0,0-1,1v7.17a1.51,1.51,0,0,1-.08.51,1.22,1.22,0,0,1-.24.45,1.45,1.45,0,0,1-.46.32,1.83,1.83,0,0,1-.7.12h0a1.2,1.2,0,0,1-1-.34,1.68,1.68,0,0,1-.3-1.1v-7.13a1,1,0,1,0-2,0v7.13a1.64,1.64,0,0,1-.3,1.1,1.22,1.22,0,0,1-1,.34H46l-.52,0a2,2,0,0,1-.4-.08,6.45,6.45,0,0,0,.53-.61,4.78,4.78,0,0,0,.46-.73,4.4,4.4,0,0,0,.34-.86,4.13,4.13,0,0,0,.13-1,3.17,3.17,0,0,0-.28-1.35,3.26,3.26,0,0,0-.75-1,3.1,3.1,0,0,0-1.09-.66,3.74,3.74,0,0,0-1.34-.23,3.68,3.68,0,0,0-1.33.23,3.14,3.14,0,0,0-1.1.66,3.29,3.29,0,0,0-.76,1,3.32,3.32,0,0,0-.27,1.35,4.13,4.13,0,0,0,.12,1,4.4,4.4,0,0,0,.34.86,4.15,4.15,0,0,0,.47.73,5.27,5.27,0,0,0,.53.61,2,2,0,0,1-.47.09l-.58,0H37.28a4.14,4.14,0,0,1-.81-.07,2.59,2.59,0,0,1-.63-.21,5.93,5.93,0,0,0,.86-.59,4.32,4.32,0,0,0,.7-.72,4.15,4.15,0,0,0,.47-.81,2.35,2.35,0,0,0,.17-.86,2.82,2.82,0,0,0-.18-1,2.51,2.51,0,0,0-.47-.76,2.72,2.72,0,0,0-.69-.52,3.64,3.64,0,0,0-.82-.3A4.48,4.48,0,0,0,35,103c-.3,0-.59,0-.86,0a6.74,6.74,0,0,0-2.2.38h0a3.15,3.15,0,0,0-2.06,3v.07l.68-.34s.38.36.56.56.33.4.48.61.3.4.44.61l.41.59a4.05,4.05,0,0,1-.67.25,6.49,6.49,0,0,1-.76.19q-.39.08-.78.12l-.73,0H29a2.36,2.36,0,0,1-.7-.08,1.07,1.07,0,0,1-.44-.22.85.85,0,0,1-.24-.35,1.23,1.23,0,0,1-.08-.44v-7.48a1,1,0,1,0-2,0v7.5a3.07,3.07,0,0,0,.3,1.42,2.79,2.79,0,0,0,.78,1,3.39,3.39,0,0,0,1.11.55,4.9,4.9,0,0,0,1.26.17h.53a8.25,8.25,0,0,0,1.08-.07,9.08,9.08,0,0,0,1.14-.2,7.7,7.7,0,0,0,1.13-.34,8.83,8.83,0,0,0,1.08-.48,3.36,3.36,0,0,0,.78.53,4.39,4.39,0,0,0,.86.34,5.35,5.35,0,0,0,.87.17,7.45,7.45,0,0,0,.79,0H40.6a4.76,4.76,0,0,0,1.39-.2,6.62,6.62,0,0,0,1.13-.48,6.29,6.29,0,0,0,1.13.48,4.81,4.81,0,0,0,1.39.2h1.69A3.26,3.26,0,0,0,48,111a2.75,2.75,0,0,0,.69-.21,2.42,2.42,0,0,0,.64-.37,3,3,0,0,0,.54-.52,2.17,2.17,0,0,0,.81.88,2.11,2.11,0,0,0,1.13.29h0a4.15,4.15,0,0,0,1.26-.2,3.25,3.25,0,0,0,1.12-.62,3.17,3.17,0,0,0,.79-1.06,3.41,3.41,0,0,0,.31-1.52v-7.21A1,1,0,0,0,54.32,99.44Zm-18.89,7.24a4.36,4.36,0,0,1-.55.47,4.71,4.71,0,0,1-.65.4c-.17-.2-.32-.4-.47-.6l-.45-.59c-.15-.19-.3-.38-.46-.56s-.3-.34-.45-.48a2.53,2.53,0,0,1,.44-.18,4.74,4.74,0,0,1,.5-.15l.49-.08a3.75,3.75,0,0,1,.45,0,4.06,4.06,0,0,1,.75.06,1.6,1.6,0,0,1,.52.16.67.67,0,0,1,.3.27.71.71,0,0,1,.1.39.91.91,0,0,1-.14.45A2.66,2.66,0,0,1,35.43,106.68Zm9-.31a3.73,3.73,0,0,1-.28.66,3.86,3.86,0,0,1-1.06,1.19,4.1,4.1,0,0,1-.61-.56,3.66,3.66,0,0,1-.45-.63,3.06,3.06,0,0,1-.27-.66,2.66,2.66,0,0,1-.1-.68,1.67,1.67,0,0,1,.11-.59,1.39,1.39,0,0,1,.29-.47,1.48,1.48,0,0,1,1-.43,1.37,1.37,0,0,1,.58.12,1.29,1.29,0,0,1,.45.31,1.39,1.39,0,0,1,.29.47,1.67,1.67,0,0,1,.11.59A2.65,2.65,0,0,1,44.46,106.37Z"></path><path class="bc878f88-5ecd-4d0b-9f4f-93a0baf5713c" d="M83.28,104.12a2.53,2.53,0,0,0-1-.63,4.59,4.59,0,0,0-1.46-.21,4.16,4.16,0,0,0-1.33.21,6,6,0,0,0-1.2.58,6.48,6.48,0,0,0-1.08.83,11.33,11.33,0,0,0-1,1l.3-1v-4.5a1,1,0,0,0-1-1h0a1,1,0,0,0-1,1v7.66l-.63.91H72V103.4H69.45a3.76,3.76,0,0,0-1.48.27,2.72,2.72,0,0,0-1,.73,3,3,0,0,0-.63,1.12,4.76,4.76,0,0,0-.22,1.46v2h-3a2.88,2.88,0,0,1-.78-.09,1.06,1.06,0,0,1-.53-.29,1.17,1.17,0,0,1-.31-.53,2.64,2.64,0,0,1-.1-.8v-1.5a.93.93,0,0,0-1.86,0v1.5a5.13,5.13,0,0,0,.21,1.5,3,3,0,0,0,.66,1.18,3,3,0,0,0,1.12.79,4.16,4.16,0,0,0,1.62.28h4a.93.93,0,0,0,.93-.93V106.9a3.4,3.4,0,0,1,.08-.78,1.27,1.27,0,0,1,.26-.52,1,1,0,0,1,.42-.29,1.7,1.7,0,0,1,.57-.09H70v4.58a1.25,1.25,0,0,0,1.25,1.25H82.4a1.25,1.25,0,0,0,1.22-1h0c.08-.35.16-.73.23-1.11s.14-.78.19-1.18a7.25,7.25,0,0,0,.08-1.11,4.85,4.85,0,0,0-.21-1.5A2.72,2.72,0,0,0,83.28,104.12ZM82,107.32c0,.21,0,.42-.08.62s-.07.4-.11.58a4.08,4.08,0,0,0-.11.49H75.65c.16-.25.36-.52.59-.81s.47-.57.73-.84a10.2,10.2,0,0,1,.82-.79,6.91,6.91,0,0,1,.9-.66,5.14,5.14,0,0,1,1-.45,2.72,2.72,0,0,1,1-.18,1.89,1.89,0,0,1,.6.09,1.13,1.13,0,0,1,.45.27,1.23,1.23,0,0,1,.3.44,1.64,1.64,0,0,1,.1.6C82.05,106.89,82,107.1,82,107.32Z"></path><path class="bc878f88-5ecd-4d0b-9f4f-93a0baf5713c" d="M95.59,99.44a1,1,0,0,0-1,1v7.17a1.79,1.79,0,0,1-.07.51,1.41,1.41,0,0,1-.25.45,1.25,1.25,0,0,1-.46.32,1.79,1.79,0,0,1-.7.12h-1c0-.24,0-.48,0-.72s0-.49,0-.75a6.41,6.41,0,0,0-.18-1.5,4.09,4.09,0,0,0-.57-1.33,2.85,2.85,0,0,0-1-.95,3,3,0,0,0-1.54-.37,3.46,3.46,0,0,0-1.5.31,2.85,2.85,0,0,0-1,.84,3.18,3.18,0,0,0-.59,1.21,5.36,5.36,0,0,0-.19,1.46,5.88,5.88,0,0,0,.19,1.48,3.25,3.25,0,0,0,.62,1.23,2.91,2.91,0,0,0,1.12.83,4.36,4.36,0,0,0,1.71.3h.41a4.05,4.05,0,0,1-.48.87,3.26,3.26,0,0,1-.67.72,3.67,3.67,0,0,1-.9.55h0a1,1,0,0,0-.42,1.4v0a1,1,0,0,0,1.1.36,6.66,6.66,0,0,0,.85-.4,5.2,5.2,0,0,0,2.06-2.1,6.81,6.81,0,0,0,.59-1.43h1.33a4.15,4.15,0,0,0,1.26-.2,3.16,3.16,0,0,0,1.12-.62,3.19,3.19,0,0,0,.8-1.06,3.55,3.55,0,0,0,.3-1.52v-7.21A1,1,0,0,0,95.59,99.44Zm-5.42,8.86c0,.25,0,.48,0,.71h-.88a2.6,2.6,0,0,1-.8-.1,1.17,1.17,0,0,1-.53-.31,1.36,1.36,0,0,1-.29-.56,4.45,4.45,0,0,1,0-1.73,1.69,1.69,0,0,1,.27-.62,1,1,0,0,1,.43-.35,1.37,1.37,0,0,1,.58-.12,1,1,0,0,1,.5.13,1.16,1.16,0,0,1,.4.42,2.4,2.4,0,0,1,.28.72,4.56,4.56,0,0,1,.1,1.05C90.19,107.81,90.19,108.06,90.17,108.3Z"></path><path class="bc878f88-5ecd-4d0b-9f4f-93a0baf5713c" d="M99.65,99.44a1,1,0,0,0-1,1v9.61a1,1,0,1,0,2,0v-9.61A1,1,0,0,0,99.65,99.44Z"></path><path class="bc878f88-5ecd-4d0b-9f4f-93a0baf5713c" d="M116.69,107.65a3.67,3.67,0,0,0-.43-.92,5.9,5.9,0,0,0-.63-.81,6.47,6.47,0,0,0-.77-.7,7.86,7.86,0,0,0-.89-.62c-.3-.19-.61-.37-.92-.53l3.54-2.25A1,1,0,0,0,117,101a1,1,0,0,0-1.49-.74L111.37,103a1.29,1.29,0,0,0,.14,2.22h0a8.64,8.64,0,0,1,.86.5,8.29,8.29,0,0,1,.88.62,6.61,6.61,0,0,1,.78.69,3.33,3.33,0,0,1,.57.77,1.63,1.63,0,0,1,.21.78,1.5,1.5,0,0,1,0,.22c0,.07,0,.14-.06.19h-4.81a1.58,1.58,0,0,1-.63-.11,1.08,1.08,0,0,1-.61-.75,3,3,0,0,1-.07-.52,6.82,6.82,0,0,0-.1-.79c0-.26-.08-.51-.13-.76s-.11-.48-.17-.7-.18-.62-.18-.62h0l-.06-.05a1,1,0,0,0-1.21-.68,1,1,0,0,0-.7,1.21l0,.12a1.41,1.41,0,0,0,.14.31l.1.33s.12.48.17.73.08.5.11.76a7.09,7.09,0,0,1,0,.79,6.58,6.58,0,0,1-.26,2,5,5,0,0,1-.74,1.52,4.78,4.78,0,0,1-1.19,1.14,5.36,5.36,0,0,1-.57.34.87.87,0,0,0-.28,1.3l.1.11a.87.87,0,0,0,1.07.25,9.43,9.43,0,0,0,.83-.47,6.23,6.23,0,0,0,1.24-1,6,6,0,0,0,1-1.31,6.4,6.4,0,0,0,.61-1.64,1.44,1.44,0,0,0,.28.27,1.48,1.48,0,0,0,.35.19,1.64,1.64,0,0,0,.41.11,2.29,2.29,0,0,0,.47,0h5.82a3.92,3.92,0,0,0,.8-1,2.77,2.77,0,0,0,.28-1.3A4,4,0,0,0,116.69,107.65Z"></path><path class="bc878f88-5ecd-4d0b-9f4f-93a0baf5713c" d="M134.62,99.44a1,1,0,0,0-1,1v7.17a1.81,1.81,0,0,1-.08.51,1.19,1.19,0,0,1-.71.77,1.78,1.78,0,0,1-.69.12h0a3.25,3.25,0,0,1-.59-.05.83.83,0,0,1-.38-.21.88.88,0,0,1-.21-.42,2.84,2.84,0,0,1-.06-.64v-.42a5.23,5.23,0,0,0-.19-1.42,3.67,3.67,0,0,0-.57-1.25,3.16,3.16,0,0,0-1-.9,3.19,3.19,0,0,0-1.5-.34,3.26,3.26,0,0,0-1.53.34,3,3,0,0,0-1,.9,3.5,3.5,0,0,0-.58,1.25,5.64,5.64,0,0,0-.18,1.42v.42a2.84,2.84,0,0,1-.06.64,1,1,0,0,1-.21.42.75.75,0,0,1-.37.21,3,3,0,0,1-.57.05,1.58,1.58,0,0,1-.63-.11,1.05,1.05,0,0,1-.4-.31,1.2,1.2,0,0,1-.21-.44,3,3,0,0,1-.07-.52,6.82,6.82,0,0,0-.1-.79c0-.26-.08-.51-.13-.76s-.11-.48-.17-.7-.07-.25-.1-.37l-.09-.29A1,1,0,0,0,120,104a1,1,0,0,0-.71,1.21l0,.12a4.86,4.86,0,0,1,.19.64c.06.24.12.48.17.73s.08.5.11.76a7.13,7.13,0,0,1,0,.79,6.57,6.57,0,0,1-.27,2,5.17,5.17,0,0,1-.74,1.53,4.88,4.88,0,0,1-1.18,1.13c-.16.11-.33.2-.5.3a.94.94,0,0,0-.3,1.41,1,1,0,0,0,1.17.26c.27-.14.53-.28.78-.44a6.47,6.47,0,0,0,1.23-1,6,6,0,0,0,.95-1.31,6.4,6.4,0,0,0,.61-1.64,1.44,1.44,0,0,0,.28.27,1.48,1.48,0,0,0,.35.19,1.76,1.76,0,0,0,.41.11,2.45,2.45,0,0,0,.48,0,2.73,2.73,0,0,0,1.3-.27,1.88,1.88,0,0,0,.78-.8,2.24,2.24,0,0,0,.41.51,2.34,2.34,0,0,0,.53.39,2.12,2.12,0,0,0,.68.25,3.83,3.83,0,0,0,1.65,0,2.38,2.38,0,0,0,.68-.24,1.89,1.89,0,0,0,.53-.38,3.42,3.42,0,0,0,.4-.52,1.84,1.84,0,0,0,.77.79,2.74,2.74,0,0,0,1.31.27h0a4.25,4.25,0,0,0,1.26-.2,3.2,3.2,0,0,0,1.11-.62,3.06,3.06,0,0,0,.8-1.06,3.55,3.55,0,0,0,.3-1.52v-7.21A1,1,0,0,0,134.62,99.44Zm-5.75,8.66a1.67,1.67,0,0,1-.27.63,1.08,1.08,0,0,1-.43.37,1.38,1.38,0,0,1-.55.11,1.47,1.47,0,0,1-.56-.11,1.08,1.08,0,0,1-.43-.37,1.67,1.67,0,0,1-.29-.63,4.07,4.07,0,0,1,0-1.88,2.31,2.31,0,0,1,.3-.63,1.12,1.12,0,0,1,.44-.35,1.33,1.33,0,0,1,.54-.1,1.35,1.35,0,0,1,.52.11,1.31,1.31,0,0,1,.43.36,1.84,1.84,0,0,1,.29.63,3.6,3.6,0,0,1,.1.92A4.22,4.22,0,0,1,128.87,108.1Z"></path><path class="bc878f88-5ecd-4d0b-9f4f-93a0baf5713c" d="M138.67,99.44a1,1,0,0,0-1,1v9.61a1,1,0,0,0,2,0v-9.61A1,1,0,0,0,138.67,99.44Z"></path><polygon class="bc878f88-5ecd-4d0b-9f4f-93a0baf5713c" points="4.58 123.34 4.55 123.34 1.32 117.89 0 117.89 0 125.3 0.99 125.3 0.99 119.36 1.01 119.36 4.51 125.3 5.57 125.3 5.57 117.89 4.58 117.89 4.58 123.34"></polygon><path class="bc878f88-5ecd-4d0b-9f4f-93a0baf5713c" d="M10.81,119.68a4.12,4.12,0,0,0-2,.48v.8h.33a2.59,2.59,0,0,1,1.52-.45c.73,0,1.11.28,1.11.94v.73a4.88,4.88,0,0,0-1.21-.15c-1.25,0-2.15.55-2.15,1.69a1.57,1.57,0,0,0,1.74,1.65,2.09,2.09,0,0,0,1.65-.68c.07.5.21.62.64.62h.42v-3.93C12.87,120.16,12.12,119.68,10.81,119.68Zm1,4.31a1.62,1.62,0,0,1-1.27.64.91.91,0,0,1-1-1c0-.67.53-.94,1.27-.94a4.65,4.65,0,0,1,1,.11Z"></path><path class="bc878f88-5ecd-4d0b-9f4f-93a0baf5713c" d="M17.19,123.81v-3.28h1.23v-.76H17.19v-1.51H16.11v1.51h-.66v.76h.66v3.41c0,1,.55,1.43,1.5,1.43a3.65,3.65,0,0,0,.88-.11v-.7H18C17.44,124.56,17.19,124.39,17.19,123.81Z"></path><path class="bc878f88-5ecd-4d0b-9f4f-93a0baf5713c" d="M21.77,119.77h-.6v5.53h1.08v-4.71C22.25,119.89,22.19,119.77,21.77,119.77Z"></path><path class="bc878f88-5ecd-4d0b-9f4f-93a0baf5713c" d="M21.72,117.9a.65.65,0,0,0-.64.64.63.63,0,0,0,.64.61.62.62,0,0,0,.63-.61A.64.64,0,0,0,21.72,117.9Z"></path><path class="bc878f88-5ecd-4d0b-9f4f-93a0baf5713c" d="M27.69,119.68A2.64,2.64,0,0,0,25,122.55a2.66,2.66,0,1,0,5.3,0A2.63,2.63,0,0,0,27.69,119.68Zm0,4.87c-.93,0-1.54-.66-1.54-2s.61-2,1.54-2,1.55.72,1.55,2S28.64,124.55,27.69,124.55Z"></path><path class="bc878f88-5ecd-4d0b-9f4f-93a0baf5713c" d="M36.3,119.68a3.55,3.55,0,0,0-2.11.78c0-.58-.14-.69-.41-.69h-.67v5.53h1.08v-4.17a3.33,3.33,0,0,1,1.62-.55c.53,0,.83.19.83.88v3.84h1.08v-4.09C37.72,120,37.08,119.68,36.3,119.68Z"></path><path class="bc878f88-5ecd-4d0b-9f4f-93a0baf5713c" d="M42.82,119.68a4.15,4.15,0,0,0-2,.48v.8h.34a2.58,2.58,0,0,1,1.51-.45c.73,0,1.11.28,1.11.94v.73a4.86,4.86,0,0,0-1.2-.15c-1.25,0-2.15.55-2.15,1.69a1.57,1.57,0,0,0,1.73,1.65,2.11,2.11,0,0,0,1.66-.68c.06.5.21.62.63.62h.43v-3.93C44.89,120.16,44.13,119.68,42.82,119.68Zm1,4.31a1.59,1.59,0,0,1-1.27.64.91.91,0,0,1-1-1c0-.67.53-.94,1.27-.94a4.49,4.49,0,0,1,1,.11Z"></path><path class="bc878f88-5ecd-4d0b-9f4f-93a0baf5713c" d="M48.57,117.89H48v7.41h1.09v-6.69C49.06,118,49,117.89,48.57,117.89Z"></path><polygon class="bc878f88-5ecd-4d0b-9f4f-93a0baf5713c" points="57.42 121.94 59.91 121.94 59.91 121.09 57.42 121.09 57.42 118.78 60.82 118.78 60.82 117.89 56.27 117.89 56.27 125.3 60.94 125.3 60.94 124.44 57.42 124.44 57.42 121.94"></polygon><polygon class="bc878f88-5ecd-4d0b-9f4f-93a0baf5713c" points="65.5 124 65.48 124 63.91 119.77 62.91 119.77 62.91 120.07 64.92 125.3 65.97 125.3 67.93 120.07 67.93 119.77 67 119.77 65.5 124"></polygon><path class="bc878f88-5ecd-4d0b-9f4f-93a0baf5713c" d="M72.64,119.68a2.58,2.58,0,0,0-2.53,2.87,2.5,2.5,0,0,0,2.64,2.82,3.42,3.42,0,0,0,2-.57V124h-.35a2.31,2.31,0,0,1-1.53.51c-1,0-1.63-.49-1.69-1.81H75s0-.23,0-.38C75,120.54,74.1,119.68,72.64,119.68ZM71.24,122c.12-1.17.68-1.61,1.4-1.61s1.23.42,1.25,1.61Z"></path><path class="bc878f88-5ecd-4d0b-9f4f-93a0baf5713c" d="M80.93,119.68a3.55,3.55,0,0,0-2.12.78c0-.58-.14-.69-.4-.69h-.68v5.53h1.08v-4.17a3.33,3.33,0,0,1,1.62-.55c.53,0,.84.19.84.88v3.84h1.08v-4.09C82.35,120,81.7,119.68,80.93,119.68Z"></path><path class="bc878f88-5ecd-4d0b-9f4f-93a0baf5713c" d="M86.67,123.81v-3.28H87.9v-.76H86.67v-1.51H85.59v1.51h-.67v.76h.67v3.41c0,1,.55,1.43,1.49,1.43a3.65,3.65,0,0,0,.88-.11v-.7h-.5C86.91,124.56,86.67,124.39,86.67,123.81Z"></path><path class="bc878f88-5ecd-4d0b-9f4f-93a0baf5713c" d="M92.57,122c-.87-.13-1.18-.32-1.18-.75s.33-.71,1-.71a2,2,0,0,1,1.27.39h.35v-.83a3.11,3.11,0,0,0-1.63-.39c-1.22,0-2,.57-2,1.62s.62,1.44,1.75,1.6c.9.14,1.16.34,1.16.81s-.38.8-1.15.8a2,2,0,0,1-1.41-.5h-.35v.84a3.11,3.11,0,0,0,1.81.49c1.45,0,2.12-.68,2.12-1.73S93.79,122.17,92.57,122Z"></path><path class="bc878f88-5ecd-4d0b-9f4f-93a0baf5713c" d="M104.19,124.5c-1.37,0-2.16-1-2.16-3s.9-2.84,2.25-2.84a2.22,2.22,0,0,1,1.66.61h.44v-.9a3.44,3.44,0,0,0-2.14-.59c-1.92,0-3.39,1.37-3.39,3.77s1.33,3.77,3.3,3.77a3.37,3.37,0,0,0,2.32-.8v-.87h-.37A2.49,2.49,0,0,1,104.19,124.5Z"></path><path class="bc878f88-5ecd-4d0b-9f4f-93a0baf5713c" d="M111.48,119.68a2.58,2.58,0,0,0-2.53,2.87,2.5,2.5,0,0,0,2.63,2.82,3.46,3.46,0,0,0,2-.57V124h-.35a2.34,2.34,0,0,1-1.54.51c-1,0-1.63-.49-1.68-1.81h3.73s0-.23,0-.38C113.8,120.54,112.94,119.68,111.48,119.68Zm-1.4,2.35c.12-1.17.68-1.61,1.4-1.61s1.23.42,1.25,1.61Z"></path><path class="bc878f88-5ecd-4d0b-9f4f-93a0baf5713c" d="M119.76,119.68a3.6,3.6,0,0,0-2.12.78c0-.58-.13-.69-.4-.69h-.68v5.53h1.08v-4.17a3.4,3.4,0,0,1,1.62-.55c.53,0,.84.19.84.88v3.84h1.08v-4.09C121.18,120,120.54,119.68,119.76,119.68Z"></path><path class="bc878f88-5ecd-4d0b-9f4f-93a0baf5713c" d="M125.51,123.81v-3.28h1.22v-.76h-1.22v-1.51h-1.08v1.51h-.67v.76h.67v3.41c0,1,.55,1.43,1.49,1.43a3.65,3.65,0,0,0,.88-.11v-.7h-.5C125.75,124.56,125.51,124.39,125.51,123.81Z"></path><path class="bc878f88-5ecd-4d0b-9f4f-93a0baf5713c" d="M131.6,119.68a2.58,2.58,0,0,0-2.53,2.87,2.5,2.5,0,0,0,2.63,2.82,3.48,3.48,0,0,0,2.05-.57V124h-.35a2.34,2.34,0,0,1-1.54.51c-1,0-1.63-.49-1.68-1.81h3.72s0-.23,0-.38C133.92,120.54,133.06,119.68,131.6,119.68ZM130.2,122c.11-1.17.68-1.61,1.4-1.61s1.23.42,1.25,1.61Z"></path><path class="bc878f88-5ecd-4d0b-9f4f-93a0baf5713c" d="M137.76,120.53c0-.65-.13-.76-.4-.76h-.68v5.53h1.08v-4a2.43,2.43,0,0,1,1.64-.63h.25v-.89a1.08,1.08,0,0,0-.3,0A2.11,2.11,0,0,0,137.76,120.53Z"></path><path class="bc878f88-5ecd-4d0b-9f4f-93a0baf5713c" d="M106.6,101.93a1,1,0,1,0-1-1A1,1,0,0,0,106.6,101.93Z"></path><path class="bc878f88-5ecd-4d0b-9f4f-93a0baf5713c" d="M70.22,101.93a1,1,0,1,0,0-2,1,1,0,0,0,0,2Z"></path><path class="bc878f88-5ecd-4d0b-9f4f-93a0baf5713c" d="M43,101.93a1,1,0,1,0-1-1A1,1,0,0,0,43,101.93Z"></path><circle class="bc878f88-5ecd-4d0b-9f4f-93a0baf5713c" cx="65.57" cy="112.91" r="0.97"></circle><path class="bc878f88-5ecd-4d0b-9f4f-93a0baf5713c" d="M64.06,112.91a1,1,0,1,0-1,1A1,1,0,0,0,64.06,112.91Z"></path><path class="bc878f88-5ecd-4d0b-9f4f-93a0baf5713c" d="M16.8,113.89a1,1,0,1,0-1-1A1,1,0,0,0,16.8,113.89Z"></path><path class="bc878f88-5ecd-4d0b-9f4f-93a0baf5713c" d="M14.32,111.94a1,1,0,0,0,0,2,1,1,0,1,0,0-2Z"></path><path class="bc878f88-5ecd-4d0b-9f4f-93a0baf5713c" d="M6.52,101.93a1,1,0,1,0,0-2,1,1,0,0,0,0,2Z"></path><path class="bc878f88-5ecd-4d0b-9f4f-93a0baf5713c" d="M4,101.93a1,1,0,1,0-1-1A1,1,0,0,0,4,101.93Z"></path><path class="e8875d65-755a-4ddb-b103-1689084b6f50" d="M119.43,60.89a.47.47,0,0,1,.18-.31.46.46,0,0,1,.34-.1.5.5,0,0,1,.31.18.45.45,0,0,1,.09.34,36.54,36.54,0,0,1-1.48,5.72h0q-1.31,4.22-6.74,6h0l-2.15.74h0q-3.66,1.31-5.45,1.92l0,0c-.71.24-1.58.52-2.62.84s-2.19.63-3.52,1h0l-1.07.3h0l-.45.11-.07,0a31.13,31.13,0,0,1-6.62,1.21c-.45,0-1.57,0-3.36-.16q-4.17,0-5.71,3.1a.47.47,0,0,1-.62.21.42.42,0,0,1-.23-.26.45.45,0,0,1,0-.36c1.17-2.45,3.36-3.66,6.57-3.61h0c1.76.1,2.87.15,3.31.16h0a31.5,31.5,0,0,0,6.23-1.14.47.47,0,0,1,.19-.06l.53-.14h0l1-.29h0c1.33-.36,2.5-.7,3.5-1s1.94-.6,2.64-.85h.06c1.19-.41,3-1,5.37-1.9h0l2.16-.75h0q4.92-1.6,6.16-5.38h0A36.54,36.54,0,0,0,119.43,60.89Z"></path><path class="e8875d65-755a-4ddb-b103-1689084b6f50" d="M82.48,18l.08,0q4.29,2,8.36,7.41h0c.56.74,1.11,1.53,1.66,2.36Q93.82,29.69,95,31.9s0,0,0,.05c.42.78,1.12,2.19,2.1,4.21v0a.25.25,0,0,1,0,.07q.1.26,1,2.61h0a25.91,25.91,0,0,0,1.18,2.73,9.34,9.34,0,0,0,4,4.29,36.93,36.93,0,0,0,7.71,2.94.5.5,0,0,1,.29.22.45.45,0,0,1,.05.34.45.45,0,0,1-.21.29.48.48,0,0,1-.35,0,38.46,38.46,0,0,1-7.91-3A10.24,10.24,0,0,1,98.54,42h0a27.64,27.64,0,0,1-1.22-2.82h0c-.55-1.46-.88-2.31-1-2.55v0l0,0c-1-2-1.69-3.45-2.11-4.22,0,0,0,0,0-.05-.78-1.44-1.57-2.77-2.39-4Q91,27.08,90.18,26h0a22.71,22.71,0,0,0-8-7.11h0a30.81,30.81,0,0,0-7.74-2.15h0L67.3,15.34a.46.46,0,0,1-.3-.19.49.49,0,0,1-.07-.35.46.46,0,0,1,.2-.29.42.42,0,0,1,.34-.08l7.11,1.37A31.85,31.85,0,0,1,82.48,18Z"></path><path class="e8875d65-755a-4ddb-b103-1689084b6f50" d="M48.69,4.33h0l3.16,2.41q2,1.49,3.69,2.47h0c.76.44,1.89,1.13,3.39,2.1a.5.5,0,0,1,.2.29.44.44,0,0,1-.06.35.5.5,0,0,1-.29.2.43.43,0,0,1-.35-.06c-1.48-.95-2.6-1.65-3.35-2.07h0a41.55,41.55,0,0,1-3.76-2.51l0,0c-1.45-1.11-2.49-1.91-3.13-2.38h0c-.43-.31-.81-.6-1.15-.86h0l-.15-.11h0q-6-4.45-14.09-2.63l-.06,0a15.78,15.78,0,0,0-1.59.45l-.93.32,0,0a8.47,8.47,0,0,0-3.71,2.91h0q-1.22,1.82.35,5.4a.47.47,0,0,1-.24.61.5.5,0,0,1-.36,0,.47.47,0,0,1-.25-.25q-1.82-4.17-.26-6.3h0a9.4,9.4,0,0,1,4-3.21l.08,0,1-.36c.53-.17,1.06-.33,1.59-.46h.06q8.6-2,14.93,2.77h0l.17.13Z"></path><path class="e8875d65-755a-4ddb-b103-1689084b6f50" d="M18.6,18.32q-4.14.6-4,5.06c.09,3.1,1,5.42,2.64,7A13.78,13.78,0,0,1,21,36.07a17.53,17.53,0,0,0,4,5.73.47.47,0,0,1-.27.81.52.52,0,0,1-.34-.12,18,18,0,0,1-4.2-6.06.08.08,0,0,1,0,0A12.78,12.78,0,0,0,16.59,31q-2.77-2.53-2.93-7.63-.15-5.31,4.81-6,4.23-.61,5-1.83a.4.4,0,0,1,.28-.21.46.46,0,0,1,.52.67Q23.46,17.62,18.6,18.32Z"></path><path class="e8875d65-755a-4ddb-b103-1689084b6f50" d="M30.91,52a.5.5,0,0,1,0-.36.47.47,0,0,1,.6-.24.44.44,0,0,1,.25.25c.24.6.47,1.22.68,1.88h0c.38,1.22.86,3.18,1.42,5.87h0c.13.63.3,1.61.52,2.92a9.39,9.39,0,0,0,1,2.82h0a7.84,7.84,0,0,0,2.39,2.54c.86.6,1.94,1.29,3.22,2.07a12.43,12.43,0,0,1,4.56,5.07q1.68,3.24,5.61,9.75,1.84,3.06,3.9,3.59c1.34.3,2.77-.22,4.27-1.55q3.6-3.21,7.41-2a.41.41,0,0,1,.27.23.43.43,0,0,1,0,.35.44.44,0,0,1-.23.27.43.43,0,0,1-.35,0c-2.23-.7-4.41-.11-6.52,1.77-1.78,1.59-3.48,2.17-5.1,1.76s-3.08-1.7-4.47-4q-4-6.55-5.64-9.8a11.59,11.59,0,0,0-4.22-4.71q-2-1.19-3.27-2.1a8.75,8.75,0,0,1-2.67-2.85h0a10.69,10.69,0,0,1-1.11-3.1v0c-.22-1.29-.39-2.24-.52-2.87h0c-.55-2.65-1-4.58-1.39-5.78h0C31.37,53.18,31.15,52.57,30.91,52Z"></path><path class="e8875d65-755a-4ddb-b103-1689084b6f50" d="M95.92,62.2h0Z"></path><polygon class="e8875d65-755a-4ddb-b103-1689084b6f50" points="94.39 51.21 95.17 51.19 95.17 50.14 94.39 50.14 94.39 51.21"></polygon><path class="e8875d65-755a-4ddb-b103-1689084b6f50" d="M58.46,27.49a13.27,13.27,0,0,0-.32-1.7,10.74,10.74,0,0,0-.2,1.68c0,.21,0,.42,0,.63a7.36,7.36,0,0,1,.76,1.3c0-.48-.09-.88-.13-1.21A7,7,0,0,0,58.46,27.49Z"></path><path class="e8875d65-755a-4ddb-b103-1689084b6f50" d="M94.39,54.6l.76-.06h0V53.38l-.78,0Z"></path><path class="e8875d65-755a-4ddb-b103-1689084b6f50" d="M69.28,46.72s0,0,0-.06a2.39,2.39,0,0,1,2.27-2.26h.18c1.4,0,2.16.77,2.28,2.3v.51h0c0,.74,0,2.08.1,4H78V43.37c0-.44-.15-.71-.49-.8H70.53a2.56,2.56,0,0,1-1.23-.44h0A4.82,4.82,0,0,1,68.07,41a6.25,6.25,0,0,1-.58-.9V51.24h1.79Z"></path><path class="e8875d65-755a-4ddb-b103-1689084b6f50" d="M94.39,56.27l.75-.08h0V55.12l-.78.06Z"></path><polygon class="e8875d65-755a-4ddb-b103-1689084b6f50" points="81.46 51.54 82.44 51.51 82.44 50.14 81.46 50.14 81.46 51.54"></polygon><polygon class="e8875d65-755a-4ddb-b103-1689084b6f50" points="82.79 59.92 94.05 58.29 94.05 50.14 82.79 50.14 82.79 59.92"></polygon><polygon class="e8875d65-755a-4ddb-b103-1689084b6f50" points="94.39 58.25 95.17 58.13 95.17 56.77 94.39 56.85 94.39 58.25"></polygon><path class="e8875d65-755a-4ddb-b103-1689084b6f50" d="M94.39,52.85l.77,0h0v-1l-.78,0Z"></path><path class="e8875d65-755a-4ddb-b103-1689084b6f50" d="M47.68,43.1l-.16.07-.06,0s0,0,0,0c-.42.27-.86.53-1.31.77h0a.78.78,0,0,0,0,.14l.19-.13,1.08-.64.06,0,.16-.1h0a.06.06,0,0,0,0-.09S47.69,43.1,47.68,43.1Z"></path><rect class="bc878f88-5ecd-4d0b-9f4f-93a0baf5713c" x="40.15" y="10.44" width="5.01" height="2.85"></rect><polygon class="e8875d65-755a-4ddb-b103-1689084b6f50" points="65 38.83 64.33 39.88 65.55 39.88 65 38.83"></polygon><path class="e8875d65-755a-4ddb-b103-1689084b6f50" d="M46.26,9.37H38.92V14.3h7.34Zm-.81,4.07a.16.16,0,0,1-.05.11.12.12,0,0,1-.1,0H40a.15.15,0,0,1-.15-.15V10.29a.11.11,0,0,1,0-.1.13.13,0,0,1,.1,0H45.3a.12.12,0,0,1,.1,0,.14.14,0,0,1,.05.1Z"></path><polygon class="e8875d65-755a-4ddb-b103-1689084b6f50" points="61.98 39.88 63.21 39.88 62.65 38.83 61.98 39.88"></polygon><path class="e8875d65-755a-4ddb-b103-1689084b6f50" d="M58.59,24.27h0a4.53,4.53,0,0,0-.21.59c0,.06,0,.12.06.19h0A14.22,14.22,0,0,1,59,27.41h0L59,28c0-.2.08-.39.13-.57.71-2.89,2.39-4.25,5-4.06a3.27,3.27,0,0,0-2.48-1.16A3.11,3.11,0,0,0,58.59,24.27Z"></path><polygon class="e8875d65-755a-4ddb-b103-1689084b6f50" points="63.18 37.59 64.4 37.59 63.85 36.54 63.18 37.59"></polygon><path class="e8875d65-755a-4ddb-b103-1689084b6f50" d="M59.32,30.11a3.72,3.72,0,0,1,.41-.77,2.18,2.18,0,0,1,1.88-.83,1.73,1.73,0,0,1,1.06.3l.24.21A3.25,3.25,0,0,0,62.72,28a1.52,1.52,0,0,0-.19-.36h0a1.14,1.14,0,0,0-.92-.39,1.52,1.52,0,0,0-.93.41h0a4,4,0,0,0-.91,1.12,4.36,4.36,0,0,0-.43,1Z"></path><polygon class="e8875d65-755a-4ddb-b103-1689084b6f50" points="81.46 53.56 82.44 53.5 82.44 52.09 81.46 52.11 81.46 53.56"></polygon><path class="e8875d65-755a-4ddb-b103-1689084b6f50" d="M56.81,31.41a2.73,2.73,0,0,0-1.44-1.35.85.85,0,0,0-.31,0,2.7,2.7,0,0,0-1.47.41,3.94,3.94,0,0,0-.67.59,6,6,0,0,1,2.59.22,2.91,2.91,0,0,1,1.54,1.23,5.9,5.9,0,0,1,.38.7,4.5,4.5,0,0,0-.63-1.76Z"></path><path class="e8875d65-755a-4ddb-b103-1689084b6f50" d="M54,43.66a6.73,6.73,0,0,0,1.19-2.45,8.52,8.52,0,0,0,.23-2v-.1a10.52,10.52,0,0,0-.11-1.34q-.06-.32-.12-.6A6.58,6.58,0,0,0,54,34.69h0a4.1,4.1,0,0,0-3-1.81c2,2.12,3,4.23,3,6.34s-1,4.19-3,6.26A4.09,4.09,0,0,0,54,43.66Z"></path><path class="e8875d65-755a-4ddb-b103-1689084b6f50" d="M52.63,67.38a.17.17,0,0,1-.12,0h0l-1.21,1.7h2.39l-1-1.76S52.64,67.36,52.63,67.38Z"></path><path class="e8875d65-755a-4ddb-b103-1689084b6f50" d="M53.88,21.92a1.9,1.9,0,0,0-.44.07l-.19.07a5.64,5.64,0,0,1,1.4,1,10,10,0,0,1,1.66,2.15,11.92,11.92,0,0,1,1,2.14l0,0,.09.11a.25.25,0,0,0,0-.08,10.87,10.87,0,0,1,.42-2.57A4,4,0,0,0,53.88,21.92Z"></path><path class="e8875d65-755a-4ddb-b103-1689084b6f50" d="M56.86,27.63A4,4,0,0,0,54,26.31a2.05,2.05,0,0,0-1.18.39,1.79,1.79,0,0,0-.52.5,3,3,0,0,1,1.81.4h0a6.7,6.7,0,0,1,1.5,1.13q.28.27.57.6a11.74,11.74,0,0,1,1.35,1.9,11.67,11.67,0,0,0-.62-3.56S56.87,27.64,56.86,27.63Z"></path><path class="e8875d65-755a-4ddb-b103-1689084b6f50" d="M50.74,33.09v2.8q1.74,2.31,0,4.11v1.53h1.19a.15.15,0,0,1,.11,0,.13.13,0,0,1,0,.1v.65a.14.14,0,0,1-.15.15H50.74v2.8a8.92,8.92,0,0,0,2.9-6.06C53.63,37.17,52.67,35.13,50.74,33.09Z"></path><path class="e8875d65-755a-4ddb-b103-1689084b6f50" d="M40.92,38.23v2.94h.25V38.23c-.05-.08-.09-.12-.13-.13A.25.25,0,0,0,40.92,38.23Z"></path><path class="e8875d65-755a-4ddb-b103-1689084b6f50" d="M50.74,36.42v3.11A2.45,2.45,0,0,0,50.74,36.42Z"></path><rect class="bc878f88-5ecd-4d0b-9f4f-93a0baf5713c" x="50.74" y="41.83" width="1.05" height="0.35"></rect><path class="e8875d65-755a-4ddb-b103-1689084b6f50" d="M55.77,67.38a.17.17,0,0,1-.12,0h0l-1.2,1.7h2.38l-1-1.76S55.78,67.36,55.77,67.38Z"></path><path class="e8875d65-755a-4ddb-b103-1689084b6f50" d="M75,62.65H69v2.77h4.76A3.62,3.62,0,0,0,75,62.65Z"></path><path class="e8875d65-755a-4ddb-b103-1689084b6f50" d="M54,69.36a0,0,0,0,0,0,0h0Z"></path><path class="e8875d65-755a-4ddb-b103-1689084b6f50" d="M68.57,65.87a.25.25,0,0,1-.07-.19v-3H66.58a5.51,5.51,0,0,0,1.7,3.7H73l.36-.41H68.76A.28.28,0,0,1,68.57,65.87Z"></path><path class="e8875d65-755a-4ddb-b103-1689084b6f50" d="M81.46,56.15V57.7l1-.11V56.08l-1,.07Z"></path><path class="e8875d65-755a-4ddb-b103-1689084b6f50" d="M81.46,58.28v1.83l1-.14v-1.8l-1,.11Z"></path><path class="e8875d65-755a-4ddb-b103-1689084b6f50" d="M57.16,69.36h0Z"></path><path class="e8875d65-755a-4ddb-b103-1689084b6f50" d="M81.46,54.13v1.45l1-.08V54.08l-1,.05Z"></path><path class="e8875d65-755a-4ddb-b103-1689084b6f50" d="M62.09,61.64a1.41,1.41,0,0,0-.49.14c-.6.28-.85.93-.77,1.95a1.14,1.14,0,0,0,.57,1,2.51,2.51,0,0,0,1.44.17V62a.84.84,0,0,0-.56-.31Z"></path><path class="e8875d65-755a-4ddb-b103-1689084b6f50" d="M58.9,67.38a.15.15,0,0,1-.11,0h0l-1.2,1.7H60l-1-1.76Z"></path><path class="e8875d65-755a-4ddb-b103-1689084b6f50" d="M53.28,49.6H42.08c-.25.28-.35.5-.31.65H54.33l.06,0,0,0c.22.23.31.43.27.61s-.18.32-.47.43H41.48a1.85,1.85,0,0,0-.45.79H56.27A9.81,9.81,0,0,1,55.4,51h0l-.18-.27c-.23-.36-.53-.86-.91-1.5l-.25-.34h-.25a.57.57,0,0,1,0,.29.76.76,0,0,1-.45.45Z"></path><rect class="bc878f88-5ecd-4d0b-9f4f-93a0baf5713c" x="41.07" y="53.99" width="2.39" height="0.5"></rect><rect class="bc878f88-5ecd-4d0b-9f4f-93a0baf5713c" x="49.59" y="53.99" width="2.39" height="0.5"></rect><rect class="bc878f88-5ecd-4d0b-9f4f-93a0baf5713c" x="45.26" y="53.99" width="2.39" height="0.5"></rect><path class="e8875d65-755a-4ddb-b103-1689084b6f50" d="M40.23,56.85a3.33,3.33,0,0,0,.25.37H61c0-.51.39-1,1.21-1.64h0a4.81,4.81,0,0,0,2.58-2.94l-7.91-.1,0,0a.24.24,0,0,1-.18.07H40a2.72,2.72,0,0,0-.11.25h0c-.27.61-.41.94-.44,1a2.52,2.52,0,0,0-.16.81,2.2,2.2,0,0,0,.24,1h0c.11.21.35.6.71,1.15Zm17.49-3a.17.17,0,0,1,0-.11.21.21,0,0,1,.11,0h2.69a.18.18,0,0,1,.1,0,.14.14,0,0,1,.05.11v.8a.18.18,0,0,1-.15.15H57.87a.15.15,0,0,1-.15-.15Zm-4.24,0a.14.14,0,0,1,.05-.11.15.15,0,0,1,.1,0h2.69a.21.21,0,0,1,.11,0,.18.18,0,0,1,0,.11v.8a.14.14,0,0,1,0,.1.13.13,0,0,1-.11,0H53.63a.1.1,0,0,1-.1,0,.11.11,0,0,1-.05-.1Zm-4.19,0a.14.14,0,0,1,.15-.15h2.7a.18.18,0,0,1,.1,0,.17.17,0,0,1,0,.11v.8a.13.13,0,0,1,0,.1.11.11,0,0,1-.1,0h-2.7a.14.14,0,0,1-.11,0,.18.18,0,0,1,0-.1Zm-4.33,0a.17.17,0,0,1,0-.11.21.21,0,0,1,.1,0h2.69a.15.15,0,0,1,.16.15v.8a.14.14,0,0,1-.05.1.12.12,0,0,1-.11,0H45.1a.12.12,0,0,1-.1,0,.13.13,0,0,1,0-.1Zm-4.19,0a.17.17,0,0,1,0-.11.25.25,0,0,1,.11,0h2.69a.25.25,0,0,1,.11,0,.17.17,0,0,1,0,.11v.8a.13.13,0,0,1,0,.1.14.14,0,0,1-.11,0H40.92a.14.14,0,0,1-.11,0,.13.13,0,0,1,0-.1Z"></path><path class="e8875d65-755a-4ddb-b103-1689084b6f50" d="M34.85,22.62s0,0,0,0a9.56,9.56,0,0,1,1.76-1.26h0A5.2,5.2,0,0,1,38,20.81h0a2.74,2.74,0,0,1,.62-.07h0c.39,0,.76,0,1.09,0h0c1.58-.1,2.38-.46,2.41-1.07A1.58,1.58,0,0,0,41.06,18a5.22,5.22,0,0,0-2.52-.19.28.28,0,0,1-.15,0,.18.18,0,0,1-.1-.11.17.17,0,0,1,0-.14.3.3,0,0,1,.06-.14.4.4,0,0,0,.11-.12.61.61,0,0,0,0-.15s0-.06,0-.05v0L38.33,17a.21.21,0,0,1-.14-.12h0a1.51,1.51,0,0,0-.42-.05,5.25,5.25,0,0,0-3.13.84h0a6.54,6.54,0,0,0-1.57,1.88,9.93,9.93,0,0,1-1.52,2.05,4.33,4.33,0,0,1-2.89,1h0l-2.1-.05a17.65,17.65,0,0,0-2.36.09c-1.69.21-2.54.87-2.56,2A1.65,1.65,0,0,0,23,26.38a15.8,15.8,0,0,0,3.31.53,30.37,30.37,0,0,0,3.57,0,3.59,3.59,0,0,0,2.19-.63,12.16,12.16,0,0,0,1.16-1.61A12.23,12.23,0,0,1,34.44,23h0l.38-.37Z"></path><path class="e8875d65-755a-4ddb-b103-1689084b6f50" d="M30.16,31.75c0-.31-.25-.58-.71-.82h0a4.28,4.28,0,0,0-1.94-.4h-.13a.24.24,0,0,1-.16-.05.26.26,0,0,1-.1-.13.82.82,0,0,0-.32-.36,1.92,1.92,0,0,0-1-.24,1.87,1.87,0,0,0-1,.24h0a.62.62,0,0,0-.34.48.59.59,0,0,0,.34.47h0l.06,0a.27.27,0,0,1,.11.1.22.22,0,0,1,0,.14.33.33,0,0,1,0,.14.55.55,0,0,0-.15.38c0,.31.26.59.71.83a4.31,4.31,0,0,0,1.94.4,4.2,4.2,0,0,0,1.93-.4C29.91,32.34,30.15,32.06,30.16,31.75Z"></path><path class="e8875d65-755a-4ddb-b103-1689084b6f50" d="M71.93,71.84l-.05,0-.07,0H66.3A.51.51,0,0,0,66,72a.32.32,0,0,0-.06.25l.08.21h0s0,0,0,.06l.47,1.35h7.35a2.22,2.22,0,0,1-.27-1.08,2.24,2.24,0,0,1,.67-1.62,2.21,2.21,0,0,1,1.07-.6H73.93A5,5,0,0,0,71.93,71.84Z"></path><path class="e8875d65-755a-4ddb-b103-1689084b6f50" d="M60.72,71.74a1.51,1.51,0,0,0,.11.22h0a2.15,2.15,0,0,1,.14.77.28.28,0,0,1,.13,0c.87,0,1.43.2,1.69.61a1,1,0,0,1,.16.43l.19.1h3l-.42-1.25,0-.05-.07-.22s0,0,0,0a.55.55,0,0,1,.14-.53.7.7,0,0,1,.53-.2h5.46a4.63,4.63,0,0,1,1.46-1.06h-.54a.24.24,0,0,1-.17-.06l-.68-.67H70a.27.27,0,0,1-.12,0l-2.1-1.2h-.63v1.3a.24.24,0,0,1-.25.25h-.84l-.94,1.12a.31.31,0,0,1-.09.07.17.17,0,0,1-.1,0H62.67a.23.23,0,0,1-.14,0l-.61-.44H60a2.73,2.73,0,0,1,.33.28A2.64,2.64,0,0,1,60.72,71.74Z"></path><path class="e8875d65-755a-4ddb-b103-1689084b6f50" d="M26.77,27.53a.28.28,0,0,1,0-.09,4.71,4.71,0,0,0-.53,0l-.76-.06a1.22,1.22,0,0,0,0,.26h0v.11l0,.08a.68.68,0,0,0,.41.29,5.33,5.33,0,0,0,.9.15A1.72,1.72,0,0,1,26.77,27.53Z"></path><path class="e8875d65-755a-4ddb-b103-1689084b6f50" d="M44.86,47.92H41.47a1.59,1.59,0,0,0-.18.43H45.1Z"></path><path class="e8875d65-755a-4ddb-b103-1689084b6f50" d="M41.31,51.11a.1.1,0,0,1,0,0H54.17q.21-.09.24-.21c0-.08,0-.17-.15-.29H41.67l-.08,0s0,0-.05,0c-.2-.28-.08-.66.37-1.13a.07.07,0,0,1,.05,0l.06,0H53.24a.45.45,0,0,0,.27-.25.28.28,0,0,0,0-.2H41.16c-.38,1.44-.72,2.54-1,3.29h.56A1.94,1.94,0,0,1,41.31,51.11Z"></path><rect class="bc878f88-5ecd-4d0b-9f4f-93a0baf5713c" x="58.02" y="53.99" width="2.39" height="0.5"></rect><path class="e8875d65-755a-4ddb-b103-1689084b6f50" d="M35.27,22.9v3.54l.42,0a5.17,5.17,0,0,0,1.23-.27c.45-.21.72-.77.8-1.69s0-1.89.05-3.06a4.9,4.9,0,0,0-.9.39A9.17,9.17,0,0,0,35.27,22.9Z"></path><rect class="bc878f88-5ecd-4d0b-9f4f-93a0baf5713c" x="53.78" y="53.99" width="2.4" height="0.5"></rect><path class="e8875d65-755a-4ddb-b103-1689084b6f50" d="M38.27,21.25c0,.83,0,1.59,0,2.28a.22.22,0,0,1,.11,0,.75.75,0,0,0,.93-.56c0-.15.08-.42.13-.82q0-.27.06-.93c-.26,0-.55,0-.85,0A2,2,0,0,0,38.27,21.25Z"></path><path class="e8875d65-755a-4ddb-b103-1689084b6f50" d="M77.44,71.16a2.2,2.2,0,0,1,.67,1.62,2.07,2.07,0,0,1,0,.5l.66-.27,0-.09c-.14-1.25.08-2,.66-2.2h0a1,1,0,0,1,.26-.08l.23-1.36h-4v1a.25.25,0,0,1-.08.18h0A2.2,2.2,0,0,1,77.44,71.16Z"></path><path class="e8875d65-755a-4ddb-b103-1689084b6f50" d="M36.53,46.27a1.17,1.17,0,0,0,.7.65,1.22,1.22,0,0,0,1.19-.45v-.38A2.54,2.54,0,0,1,36.53,46.27Z"></path><path class="e8875d65-755a-4ddb-b103-1689084b6f50" d="M27.52,33.48a6.49,6.49,0,0,1-1-.08c.18,1.17.68,1.83,1.51,2a11.79,11.79,0,0,1-.15-1.9Z"></path><path class="e8875d65-755a-4ddb-b103-1689084b6f50" d="M86.49,64.41h0a1.27,1.27,0,0,0-.48-.08,1.19,1.19,0,0,0-.64.16h0a.35.35,0,0,0-.2.26.36.36,0,0,0,.2.27,1.17,1.17,0,0,0,.64.16,1.19,1.19,0,0,0,.64-.16h0a.44.44,0,0,0,.2-.21,1.62,1.62,0,0,0-.26-.34Z"></path><path class="e8875d65-755a-4ddb-b103-1689084b6f50" d="M87.84,65.46v.69a1.39,1.39,0,0,0,.81-.33.66.66,0,0,0-.05-.71h0a1.72,1.72,0,0,1-.21-1.42,1.66,1.66,0,0,1,1-1,1.71,1.71,0,0,0,.76-.53c0-.1,0-.21-.13-.32a1.63,1.63,0,0,0-.34-.21,5.26,5.26,0,0,0-2.28-.36,11.35,11.35,0,0,0-2.9.36,8.36,8.36,0,0,0-.81.25c-1,.35-1.58.89-1.6,1.62a2.36,2.36,0,0,0,1.22,1.93,6.53,6.53,0,0,0,3.55.79h.45v-.73a1.5,1.5,0,0,0-.08-.39.91.91,0,0,1-.36.34h0a1.59,1.59,0,0,1-.9.24,1.63,1.63,0,0,1-.9-.24.76.76,0,0,1-.44-.69.74.74,0,0,1,.44-.68h0a1.72,1.72,0,0,1,.9-.23,1.83,1.83,0,0,1,.64.11c.68.08,1.09.57,1.22,1.49Z"></path><path class="e8875d65-755a-4ddb-b103-1689084b6f50" d="M95.16,64.56H90.8a0,0,0,0,0,0,0,2.73,2.73,0,0,0-.05.37,4.3,4.3,0,0,0,.36,2.13.86.86,0,0,0,.07.1,1.14,1.14,0,0,0,.67.32,6.3,6.3,0,0,0,1.25.1,6.08,6.08,0,0,0,1.61-.14h0a.65.65,0,0,0,.41-.48h0c0-.06.06-.53.14-1.41,0-.34.08-.68.14-1a1,1,0,0,0-.24,0Z"></path><path class="e8875d65-755a-4ddb-b103-1689084b6f50" d="M55.29,71.43l.19-.13h0A7,7,0,0,0,53.3,72a7.42,7.42,0,0,0-1,.67H53.9A6.69,6.69,0,0,1,55.29,71.43Z"></path><path class="e8875d65-755a-4ddb-b103-1689084b6f50" d="M115.36,53.75a4.79,4.79,0,0,0-2.5-.88c-2.19-.33-3.76-.62-4.69-.87a35.07,35.07,0,0,1-7.34-2.8,9.34,9.34,0,0,1-4-4.3,25,25,0,0,1-1.12-2.62c-.55-1.45-.85-2.25-.92-2.4s0,0,0-.05l-.18-.36c-.83-1.71-1.43-2.9-1.79-3.58q-1.11-2-2.25-3.78c-.5-.76-1-1.48-1.52-2.16a21.05,21.05,0,0,0-7.52-6.68,26.32,26.32,0,0,0-8.67-2.41,21.07,21.07,0,0,1-6.42-1.49,11.28,11.28,0,0,1-1.47-1l0,0a5.57,5.57,0,0,0-1.6-.87,22.29,22.29,0,0,1-3.89-1.83C58,14.74,57,14.1,56.27,13.69s-1.59-1-2.47-1.59l-1-.75L49.83,9.11c-2-1.48-3-2.26-3.14-2.34a14.49,14.49,0,0,0-1.53-.95l-.25-.09a15.92,15.92,0,0,0-9.61,0,20.18,20.18,0,0,0-2.44.76,7.09,7.09,0,0,0-3.45,2.15,3.81,3.81,0,0,0,0,3.42c.09.28.18.61.29,1a20.11,20.11,0,0,1,.67,2.75A2.75,2.75,0,0,1,30,16.94a5.06,5.06,0,0,1-1.14,1.43,7.84,7.84,0,0,1-5.42,1.76,4,4,0,0,1-1.69-.29,3.46,3.46,0,0,0-2.59,0A4.8,4.8,0,0,0,18,21.71a9.43,9.43,0,0,0-.5,3.24,3.52,3.52,0,0,0,.67,2.57c.07.06.58.4,1.54,1A3.15,3.15,0,0,1,21,29.77c.28.7.63,1.64,1,2.81a9.86,9.86,0,0,0,1.55,2.63c.7.85,2.28,2.65,4.76,5.42,2.19,2.42,3.72,4.21,4.58,5.35a18.14,18.14,0,0,1,2.7,5.45c.35,1.14.79,3,1.31,5.45.12.59.28,1.5.49,2.72a9.12,9.12,0,0,0,1,2.68,9.78,9.78,0,0,0,5.21,4c.41.72,1,1.78,1.84,3.17,1.42,2.41,2.7,4.5,3.82,6.25Q54.63,84,57.37,84a3.23,3.23,0,0,0,2.34-1.52,5.67,5.67,0,0,0,1-1.66A23.24,23.24,0,0,0,68,81c1.72-.35,3-.17,3.8.53A5.3,5.3,0,0,0,75,82.7a3.1,3.1,0,0,0,3.06-1.78c.12-.22.35-.7.68-1.45a2.52,2.52,0,0,1,.59-.93c.94-.68,2-1.41,3.29-2.21,1.09-.68,2-1.2,2.69-1.56q2.53.15,3.18.15a28.71,28.71,0,0,0,6-1.11l.52-.14,1-.27c2.54-.7,4.44-1.27,5.73-1.72,1.1-.38,2.79-1,5.06-1.79s4.19-1.43,6-2c.9-.27,1.66-1.66,2.28-4.19.11-.42.21-.88.3-1.37a31.58,31.58,0,0,0,.72-5.75A4.08,4.08,0,0,0,115.36,53.75ZM87.92,36.44a1.22,1.22,0,0,1,.34,0,1.82,1.82,0,0,1,.66.11.54.54,0,0,1,.31.25h0v0h0a.54.54,0,0,1-.31.25,1.63,1.63,0,0,1-.66.11,1.22,1.22,0,0,1-.34,0c-.19-.06-.29-.16-.29-.3v-.09C87.63,36.6,87.73,36.5,87.92,36.44Zm-.8,2.18a1,1,0,0,1-.12-.21,1.62,1.62,0,0,1-.12-.66h0a1.29,1.29,0,0,1,.05-.35c0-.19.15-.28.3-.28h.09c.14,0,.23.09.29.28a1.87,1.87,0,0,1,0,.35h0a1.82,1.82,0,0,1-.11.66,1,1,0,0,1-.12.21.38.38,0,0,1-.13.1v0s0,0,0,0h0v0A.35.35,0,0,1,87.12,38.62Zm0-1.79a.2.2,0,0,1,.06-.15.16.16,0,0,1,.12,0,.2.2,0,0,1,.13,0,.2.2,0,0,1,0,.14.23.23,0,0,1,0,.11.22.22,0,0,1-.16,0,.17.17,0,0,1-.16-.07A.45.45,0,0,1,87.11,36.83ZM87,35.15a.5.5,0,0,1,.24-.31v0h.05v0a.51.51,0,0,1,.25.31,1.92,1.92,0,0,1,.11.67,1.86,1.86,0,0,1,0,.34c-.06.19-.15.28-.29.28h-.09c-.15,0-.25-.09-.3-.28a1.27,1.27,0,0,1-.05-.34A1.71,1.71,0,0,1,87,35.15Zm-1.66,1.61h0a.54.54,0,0,1,.31-.25,1.92,1.92,0,0,1,.67-.11,1.27,1.27,0,0,1,.34,0c.19.06.28.16.28.29v.09c0,.14-.09.24-.28.3a1.27,1.27,0,0,1-.34,0,1.71,1.71,0,0,1-.67-.11.54.54,0,0,1-.31-.25h0v0Zm1.21,6.29c-.18.45-.63.69-1.36.74A1.36,1.36,0,0,1,83.72,43,3,3,0,0,0,86.55,43.05ZM86.4,45.1a.29.29,0,0,1-.33.31.32.32,0,0,1-.31-.16l0-.15q0-.3.33-.3T86.4,45.1Zm-2,0a.31.31,0,0,1-.07.2.28.28,0,0,1-.24.11.28.28,0,0,1-.28-.16l0-.15a.31.31,0,0,1,.62,0Zm-1.7-12.41a.17.17,0,0,1,.11-.11h.15l.07.06a.1.1,0,0,1,0,0,.18.18,0,0,1,0,.16.17.17,0,0,1-.1.1h0a.23.23,0,0,1-.11,0,.16.16,0,0,1-.11-.1A.19.19,0,0,1,82.66,32.69Zm.41,1a.5.5,0,0,1,.31-.08.27.27,0,0,1,.22.12q.15.27-.45.57a2.36,2.36,0,0,1-.76.2,2.94,2.94,0,0,1-.45.05h-.78l-1.33-.09.35,0c.25,0,.49,0,.74-.08l.09,0,.63-.11a7.62,7.62,0,0,0,.94-.28A3.19,3.19,0,0,0,83.07,33.66Zm-1.78,5a.22.22,0,0,1,.14-.14.23.23,0,0,1,.2,0l0,0a.18.18,0,0,1,.12.13.23.23,0,0,1,0,.2.26.26,0,0,1-.15.14.23.23,0,0,1-.2,0,.26.26,0,0,1-.14-.15A.18.18,0,0,1,81.29,38.62Zm-.15-.86a.18.18,0,0,1-.09-.08s0,0,0,0a.19.19,0,0,1,0-.13v0a.17.17,0,0,1,.12-.11.17.17,0,0,1,.14,0,.17.17,0,0,1,.1.1h0a.14.14,0,0,1,0,.15.18.18,0,0,1-.09.1h0A.14.14,0,0,1,81.14,37.76Zm-.21-1.68c-.24-.06-.51-.14-.8-.24s-.7-.25-1.09-.41l-.66-.29c-.21-.1-.42-.19-.63-.3l-.53-.28.5.17.66.18.59.15a13.23,13.23,0,0,0,2,.27,6.56,6.56,0,0,0,1.2,0l.08,0a.91.91,0,0,1,.5.07.42.42,0,0,1,.24.3.26.26,0,0,1-.07.21.77.77,0,0,1-.13.12,1.68,1.68,0,0,1-.77.22h-.15A3.44,3.44,0,0,1,80.93,36.08Zm-2.61,2.78c-.09-.26-.2-.52-.32-.78l-.16-.31.74,1.11a5,5,0,0,1,.77,1.84c0,.46-.08.68-.29.68a.22.22,0,0,1-.2-.13.39.39,0,0,1-.09-.3c0-.14,0-.27,0-.41A6.67,6.67,0,0,0,78.32,38.86Zm0,1.9a.17.17,0,0,1,0,.14l0,0a.13.13,0,0,1-.07.06h0a.2.2,0,0,1-.1,0l0,0a.16.16,0,0,1-.1-.11.08.08,0,0,1,0-.07.14.14,0,0,1,0-.07.17.17,0,0,1,.11-.11.19.19,0,0,1,.15,0A.16.16,0,0,1,78.34,40.76Zm0-3.57L78,36.71c-.26-.3-.54-.59-.83-.87l-.06-.06-.39-.35.51.33.12.08c.36.25.7.49,1,.74l.06.05a6.75,6.75,0,0,1,2.05,2.15l0,.08a2.72,2.72,0,0,1,.15.55v.15a.37.37,0,0,1-.21.33.32.32,0,0,1-.3,0l0,0a.88.88,0,0,1-.3-.36s0,0,0,0A7.94,7.94,0,0,0,78.38,37.19ZM79.25,36a.06.06,0,0,1,0-.08s0-.05.06-.06a.06.06,0,0,1,.08,0,.08.08,0,0,1,0,.06.06.06,0,0,1,0,.08.1.1,0,0,1,0,.06H79.3S79.26,36,79.25,36Zm3.33.72a.38.38,0,0,1,.14-.14.28.28,0,0,1,.18,0,.19.19,0,0,1,.12.11l0,0a.28.28,0,0,1,0,.18.29.29,0,0,1-.14.13.19.19,0,0,1-.18,0,.1.1,0,0,1,0,0,.2.2,0,0,1-.09-.09A.28.28,0,0,1,82.58,36.72Zm-.35-4.4a.31.31,0,0,1,0,.1.38.38,0,0,1-.07.29,1.72,1.72,0,0,1-.58.55,2.71,2.71,0,0,1-.59.28l-.13,0a9.79,9.79,0,0,1-1.32.27c-.27,0-.58.07-.91.1l-.3,0L77.26,34h-.59l.52-.1c.39-.07.79-.16,1.19-.26l.06,0c.18,0,.34-.09.5-.14a10.24,10.24,0,0,0,1.53-.58c.15-.08.3-.15.43-.23a4.86,4.86,0,0,0,.41-.27l.11-.08a.8.8,0,0,1,.47-.17A.41.41,0,0,1,82.23,32.32Zm-2.92.51a.13.13,0,0,1,0-.12.14.14,0,0,1,.08-.09.13.13,0,0,1,.12,0,.14.14,0,0,1,.08.09.13.13,0,0,1,0,.12s0,.06-.08.08a.13.13,0,0,1-.12,0S79.32,32.87,79.31,32.83Zm2.39-3.1c.18.11.15.38-.09.79a2.65,2.65,0,0,1-.71.73,7.78,7.78,0,0,1-.87.56l-.37.21-.46.24-.36.16.29-.2a4.23,4.23,0,0,0,.41-.33l.27-.22a7,7,0,0,0,1.08-1.15,3,3,0,0,0,.33-.55.45.45,0,0,1,.23-.24A.27.27,0,0,1,81.7,29.73Zm-.4-1.06a.35.35,0,0,1,.06.09.25.25,0,0,1,0,.17.35.35,0,0,1-.06.09l-.06,0a.17.17,0,0,1-.17,0A.1.1,0,0,1,81,29,.13.13,0,0,1,81,29v0a.21.21,0,0,1,.28-.28ZM79.5,26l.32-.88.32.88h.94l-.75.52.36,1-.88-.64-.86.6h0l.34-.94L78.58,26Zm-1.34,2.79s0,0,0-.05a.24.24,0,0,1,.09-.08.16.16,0,0,1,.1,0l.06,0a.24.24,0,0,1,.13.13.17.17,0,0,1,0,.17.21.21,0,0,1-.13.11l-.06,0a.17.17,0,0,1-.1,0,.19.19,0,0,1-.12-.11A.25.25,0,0,1,78.16,28.78Zm.22,2.45.24-.34a7.47,7.47,0,0,0,.78-1.39l.07-.18a.79.79,0,0,1,.29-.4l.06,0a.4.4,0,0,1,.29-.06.24.24,0,0,1,.15.09.48.48,0,0,1,.06.18,1,1,0,0,1-.06.4s0,.05,0,.07a2.41,2.41,0,0,1-.11.25A5,5,0,0,1,79,31.27c-.18.18-.38.36-.6.55l-.23.19-.51.41-.3.24-.29.22-.49.36.38-.37.27-.28.16-.17.42-.48C78,31.7,78.19,31.46,78.38,31.23Zm-2,.94a14.56,14.56,0,0,0,.22-1.52c0-.35.06-.67.08-1s0-.61,0-.88a1,1,0,0,0,0-.18v0a6.17,6.17,0,0,0-.18-1.15.11.11,0,0,1,0-.05,1.36,1.36,0,0,1,0-.17.78.78,0,0,1,0-.34.38.38,0,0,1,.26-.26.35.35,0,0,1,.35.15,1.55,1.55,0,0,1,.29.67.14.14,0,0,1,0,.07,3.65,3.65,0,0,1,0,1.15c0,.23-.08.49-.13.77l0,.1c-.07.3-.16.64-.27,1-.18.58-.36,1.13-.56,1.64a2.44,2.44,0,0,1-.1.24A2.33,2.33,0,0,0,76.41,32.17Zm-.19,3.56.06.11c.21.39.4.78.58,1.17.06.12.11.25.17.37a.14.14,0,0,1,0,.06,6.1,6.1,0,0,1,.67,2.47,1.54,1.54,0,0,1-.08.52.83.83,0,0,1-.12.25c-.09.15-.19.22-.32.21a.36.36,0,0,1-.3-.22.75.75,0,0,1-.08-.49,5.12,5.12,0,0,0,.05-.7A8.73,8.73,0,0,0,76.73,38c0-.19-.08-.38-.12-.59s-.08-.33-.13-.5c-.1-.37-.21-.73-.33-1.1,0-.05,0-.09,0-.13l-.18-.49ZM76.49,39a.17.17,0,0,1,0,.17.23.23,0,0,1-.12.12.19.19,0,0,1-.18,0l0,0a.18.18,0,0,1-.08-.09.25.25,0,0,1,0-.17.34.34,0,0,1,.12-.12.33.33,0,0,1,.14,0h0A.34.34,0,0,1,76.49,39Zm-1.7-12.85c.13-.1.3,0,.5.22l.12.17a2,2,0,0,1,.23.54c0,.1,0,.21.08.33s.09.53.13.85c0,.06,0,.14,0,.21v0a12.19,12.19,0,0,1,0,1.32,10,10,0,0,0-.25-1.17,1.21,1.21,0,0,0,0-.18c0-.11-.07-.23-.11-.34a5.27,5.27,0,0,0-.27-.71q-.1-.21-.21-.39s0,0,0,0-.15-.23-.22-.33a.43.43,0,0,1-.11-.3A.24.24,0,0,1,74.79,26.19Zm-.2,1.5a.22.22,0,0,1,.1-.09.21.21,0,0,1,.11,0h0a.12.12,0,0,1,.06.08.11.11,0,0,1,0,.11.18.18,0,0,1-.09.1h0a.08.08,0,0,1-.07,0h0a.14.14,0,0,1-.08-.07l0,0A.2.2,0,0,1,74.59,27.69Zm-1,0a.32.32,0,0,1,.38,0,1.64,1.64,0,0,1,.62.52s0,0,0,0a.9.9,0,0,1,.14.2,5.76,5.76,0,0,1,.61,1.6c.08.31.16.66.23,1l0,.14c0,.2.07.4.1.6s.07.42.1.63,0,.43.07.63q-.08-.3-.18-.63t-.27-.78l-.12-.32c0-.09-.08-.18-.11-.27-.14-.32-.27-.62-.4-.9a7,7,0,0,0-1.11-1.65.77.77,0,0,1-.22-.44A.39.39,0,0,1,73.57,27.7ZM74,40.31l-.06.08a1.76,1.76,0,0,1-.25.28.6.6,0,0,1-.23.13.27.27,0,0,1-.33,0,.41.41,0,0,1-.09-.36.8.8,0,0,1,.19-.43l.12-.13.23-.32.07-.12a10.09,10.09,0,0,0,1-2c0-.07.06-.15.1-.23.14-.39.27-.79.38-1.2l.14-.5-.08.59c-.06.47-.13.91-.19,1.34a.42.42,0,0,1,0,.06A7.49,7.49,0,0,1,74,40.31Zm.36,1.19a.6.6,0,0,1,0,.19.32.32,0,0,1-.14.14h0a.28.28,0,0,1-.13,0,.22.22,0,0,1-.13-.14.21.21,0,0,1,0-.19.2.2,0,0,1,.08-.1l0,0a.26.26,0,0,1,.32.12Zm-2.53-3.21a2.36,2.36,0,0,0-.2.32l-.07.13a1,1,0,0,1-.34.36.43.43,0,0,1-.36,0c-.12,0-.17-.14-.17-.29a1.38,1.38,0,0,1,.26-.69,2,2,0,0,1,.24-.32,3.76,3.76,0,0,1,.4-.4.05.05,0,0,1,0,0,10.57,10.57,0,0,1,1.18-.89l.42-.28.69-.41,1-.59c-.24.17-.5.37-.76.59s-.41.34-.62.53a7.5,7.5,0,0,0-.64.6c-.17.16-.31.32-.45.47A6.36,6.36,0,0,0,71.82,38.29Zm.61.22a.19.19,0,0,1,0,.15l0,.05a.29.29,0,0,1-.08.07.26.26,0,0,1-.15,0,.21.21,0,0,1-.1-.11.15.15,0,0,1,0-.16v0a.18.18,0,0,1,.09-.08.2.2,0,0,1,.15,0A.2.2,0,0,1,72.43,38.51Zm-1.79-4.17q.38-.06.87-.09h.62l.83,0c.72,0,1.39.1,2,.19a15.84,15.84,0,0,0-1.81.13l-.88.14A7.59,7.59,0,0,0,71.2,35a4.94,4.94,0,0,0-.77.28l-.42.2a.69.69,0,0,1-.48.11.43.43,0,0,1-.32-.19.36.36,0,0,1,.08-.38,1.44,1.44,0,0,1,.63-.47A2.67,2.67,0,0,1,70.64,34.34ZM70.56,34a.17.17,0,0,1,0-.1.18.18,0,0,1,.09-.08.14.14,0,0,1,.09,0h0a.18.18,0,0,1,0,.07.09.09,0,0,1,0,.1.1.1,0,0,1-.07.07h-.09A.16.16,0,0,1,70.56,34Zm.75-3.94a4.11,4.11,0,0,1,1.18.67l.37.31c.26.22.55.47.85.76l.64.63c.27.27.52.55.76.82a12.44,12.44,0,0,0-1-.82l-.38-.26a11.23,11.23,0,0,0-1-.64A7.3,7.3,0,0,0,71.51,31l-.1,0a4,4,0,0,0-.53-.16.8.8,0,0,1-.41-.23.5.5,0,0,1-.14-.35.28.28,0,0,1,.25-.23,1.15,1.15,0,0,1,.51,0Zm0-.65a.18.18,0,0,1,0-.16.3.3,0,0,1,.12-.13.18.18,0,0,1,.16,0h0a.18.18,0,0,1,.12.12.15.15,0,0,1,0,.16.2.2,0,0,1-.12.13.13.13,0,0,1-.08,0l-.09,0,0,0-.06-.05S71.27,29.42,71.26,29.4Zm3,.88a.11.11,0,0,1,0-.11c0-.05,0-.07.09-.09h.13a.24.24,0,0,1,.08.09l0,0a.14.14,0,0,1,0,.07.26.26,0,0,1-.09.09.13.13,0,0,1-.12,0S74.26,30.32,74.25,30.28Zm-4-2.87.21.58-.52-.37-.47.33.19-.54-.4-.29h.51l.19-.49.18.49h.54ZM70,31.15a.13.13,0,0,1,0,.12l-.08.09h-.13a.39.39,0,0,1-.08-.1.11.11,0,0,1,0-.11.15.15,0,0,1,.08-.08.13.13,0,0,1,.12,0h0A.15.15,0,0,1,70,31.15Zm-.25.45H70a3.9,3.9,0,0,1,1.2.33,1.3,1.3,0,0,1,.3.13c.23.1.47.22.73.36l.06,0,.52.3a19.33,19.33,0,0,1,1.7,1.1,14.45,14.45,0,0,0-1.67-.71c-.26-.1-.51-.18-.74-.25l-.38-.12c-.24-.06-.46-.12-.67-.16a6.78,6.78,0,0,0-1.41-.14h-.08a.55.55,0,0,1-.26,0l-.14-.07A.38.38,0,0,1,69,32a.35.35,0,0,1,.23-.32A1.59,1.59,0,0,1,69.79,31.6Zm-.56,4.62a.26.26,0,0,1,.21,0,.22.22,0,0,1,.13.15.18.18,0,0,1,0,.2.1.1,0,0,1,0,.08l-.09.07a.26.26,0,0,1-.35-.15.23.23,0,0,1,0-.2v0A.29.29,0,0,1,69.23,36.22Zm.23,1.22.13-.18a2,2,0,0,1,.33-.32l.15-.1a8.06,8.06,0,0,1,1.26-.64l.29-.11a6.93,6.93,0,0,1,.67-.25l.28-.08-.16.08a7.77,7.77,0,0,0-.79.47l-.08.06a6.68,6.68,0,0,0-1.14.91l-.17.16a3.52,3.52,0,0,0-.33.42.52.52,0,0,1-.27.22.23.23,0,0,1-.24,0C69.26,37.92,69.28,37.72,69.46,37.44Zm4.39.66a.17.17,0,0,1,0,.1.24.24,0,0,1-.09.08h-.09a.13.13,0,0,1-.07-.08.09.09,0,0,1,0-.1.11.11,0,0,1,.07-.08.14.14,0,0,1,.09,0A.18.18,0,0,1,73.85,38.1Zm.8,3.07a5.63,5.63,0,0,0,.79-2.07c.06-.28.1-.56.14-.85l0-.36,0,.4c0,.33,0,.64,0,.94a4.56,4.56,0,0,1-.34,2c-.24.41-.45.57-.64.47a.27.27,0,0,1-.14-.21A.6.6,0,0,1,74.65,41.17Zm-2.12-14.1h0a.18.18,0,0,1,.11-.1.19.19,0,0,1,.25.11.17.17,0,0,1,0,.12v0a.19.19,0,0,1-.25.11.15.15,0,0,1-.11-.11A.2.2,0,0,1,72.53,27.07Zm.77,2.87h0l.34.48.09.12.18.29a1.48,1.48,0,0,0,.13.21l-.25-.27-.3-.31h0a2.33,2.33,0,0,0-.28-.26s0,0,0,0a6.36,6.36,0,0,0-1.61-1.13L71.34,29a.46.46,0,0,1-.26-.21.22.22,0,0,1,0-.24c.1-.19.37-.19.8,0h0A4.69,4.69,0,0,1,73.3,29.94Zm-3.19-6.77.47-1.25L71,23.17h1.34l-1.07.73.52,1.43-1.27-.91-1.23.84.51-1.36-1-.73ZM68.58,33.35a2,2,0,0,1,.72-.1,8.44,8.44,0,0,1,1.27.12l.28.05a8,8,0,0,1,.93.2h0a9.59,9.59,0,0,0-1,0h-.13a6,6,0,0,0-2.11.37.47.47,0,0,1-.33,0,.24.24,0,0,1-.19-.14C68,33.66,68.15,33.49,68.58,33.35Zm-.69,2.09a.1.1,0,0,1,0-.06.14.14,0,0,1,.09,0,.09.09,0,0,1,.06.06.14.14,0,0,1,0,.09s0,0-.06,0H68l0,0a.08.08,0,0,1,0,0A.11.11,0,0,1,67.89,35.44Zm-1.73-8.85.32-.87.33.87h.94l-.76.53.37,1-.89-.63-.86.58.36-.94-.73-.53Zm1.23,7.49a.17.17,0,0,1-.07.1.14.14,0,0,1-.11,0,.15.15,0,0,1-.09-.06L66.44,33l-.73,1.08a.26.26,0,0,1-.09,0,.1.1,0,0,1-.09,0,.16.16,0,0,1-.08-.06L64.79,33l-.73,1.08-.08,0a.1.1,0,0,1-.09,0,.12.12,0,0,1-.08-.06L63.15,33l-.77,1.11a.11.11,0,0,1-.07.06.11.11,0,0,1-.1,0,.13.13,0,0,1-.07,0L61.46,33l-.77,1.11a.22.22,0,0,1-.09.07.16.16,0,0,1-.12,0,.14.14,0,0,1-.06-.1.15.15,0,0,1,0-.11l.9-1.29a.16.16,0,0,1,.08-.06h.09s.06,0,.09.07l.67,1.1L63,32.67a.16.16,0,0,1,.08-.06h.1s0,0,.08.07L64,33.74l.73-1.07a.12.12,0,0,1,.08-.06h.1l.07.07.66,1.06.73-1.07a.16.16,0,0,1,.08-.06h.1a.18.18,0,0,1,.08.07L67.37,34A.14.14,0,0,1,67.39,34.08ZM65,23.49a.41.41,0,0,1,0,.19.34.34,0,0,1-.1.16.32.32,0,0,1-.19.05q-4-.59-5.08,3.62-.08.34-.15.72a4.42,4.42,0,0,1,.85-1l0,0a1.91,1.91,0,0,1,1.24-.53,1.57,1.57,0,0,1,1.31.58h0a1.87,1.87,0,0,1,.27.48,4,4,0,0,1,.21,1.43V30a.2.2,0,0,1,0,.15.29.29,0,0,1-.16.1l-.16,0a.28.28,0,0,1-.11-.13,1.76,1.76,0,0,0-.54-.83,1.3,1.3,0,0,0-.77-.21,1.76,1.76,0,0,0-1.48.62,7.54,7.54,0,0,0-.82,1.93v.05a1.46,1.46,0,0,0-.07.19.09.09,0,0,0,0,.05v19.3h1.19c0-1,0-2.34,0-3.94s0-3.66,0-6q0-4.57,0-6.41a.27.27,0,0,1,.07-.18.25.25,0,0,1,.18-.08h6.67a.25.25,0,0,1,.18.08.22.22,0,0,1,.07.17v3.77a3.84,3.84,0,0,0,.16.6,5.47,5.47,0,0,0,.82,1.46,4.85,4.85,0,0,0,1.1,1,2.17,2.17,0,0,0,1,.36h7c.62.12.92.56.91,1.3v7.86h.82V42.33a.23.23,0,0,1,.08-.17.22.22,0,0,1,.17-.07H83a.25.25,0,0,1,.14,0,.27.27,0,0,1,.09.12.22.22,0,0,1,0,.14l-1,4.71a14.2,14.2,0,0,1,5.63.09L86.7,41a.23.23,0,0,1,0-.16.32.32,0,0,1,.12-.11.22.22,0,0,1,.16,0,14.12,14.12,0,0,0,5.93.12.2.2,0,0,1,.15,0,.22.22,0,0,1,.11.1.26.26,0,0,1,0,.15l-.8,5.3c.41-.8.63-1.21.65-1.26h0c.15-.31.41-.84.79-1.59a.29.29,0,0,1,.14-.13.28.28,0,0,1,.2,0,.29.29,0,0,1,.13.14,11.12,11.12,0,0,0,5.25,5.77.47.47,0,0,1,.1.1.33.33,0,0,1,0,.13v5.51c-.09,1.12-.57,1.67-1.45,1.67h0c-.88,0-1.38-.52-1.48-1.67v-5H95.67v8.23a.27.27,0,0,1-.06.16.24.24,0,0,1-.15.09l-14,2v5a.25.25,0,0,1,0,.09c0,.83-.51,1.23-1.4,1.2H68.18A.26.26,0,0,1,68,66.8a6,6,0,0,1-2-4.4.16.16,0,0,1,0-.13.22.22,0,0,1,.09-.1.33.33,0,0,1,.14,0H68.5v-.85l-.1,0c-.39,0-.61-.2-.67-.64h0c0-.22,0-.35,0-.39h0a1.84,1.84,0,0,0-.64-.18h0a.56.56,0,0,1-.51-.61c0-.26,0-.42.13-.48a.28.28,0,0,1,.19-.07h2.51V57.6a.28.28,0,0,1,0-.13V57.1a.68.68,0,0,1,0-.14,3.91,3.91,0,0,0-.78-2A1.73,1.73,0,0,0,67,54.43C65.67,54.6,65,55.79,65,58v5.43c.08,1-.46,1.65-1.61,1.9v3.21a.22.22,0,0,1,0,.08c-.27.86-.71,1.28-1.33,1.25H51a.28.28,0,0,1-.18-.06.24.24,0,0,1-.07-.18.23.23,0,0,1,.07-.18.21.21,0,0,1,.1-.06l-.07,0a.16.16,0,0,1,0-.1.2.2,0,0,1,0-.11l1.43-2-.71-1a.1.1,0,0,1,0-.1.14.14,0,0,1,.06-.1.17.17,0,0,1,.12,0,.15.15,0,0,1,.09.06l.6.88V65.48l-.68-1a.17.17,0,0,1,.17-.23.18.18,0,0,1,.09.07l.42.65v-.82a.14.14,0,0,1,.15-.15.21.21,0,0,1,.11,0,.17.17,0,0,1,0,.11v.82l.43-.65a.13.13,0,0,1,.09-.07.11.11,0,0,1,.11,0,.13.13,0,0,1,.07.09.11.11,0,0,1,0,.11l-.67,1v1.06l.61-.86a.13.13,0,0,1,.09-.07.14.14,0,0,1,.11,0,.2.2,0,0,1,.07.1.23.23,0,0,1,0,.11L52.8,67,54,69.14l1.41-2-.71-1a.1.1,0,0,1,0-.1.14.14,0,0,1,.06-.1.17.17,0,0,1,.12,0A.15.15,0,0,1,55,66l.6.88V65.48l-.68-1a.14.14,0,0,1,0-.11.18.18,0,0,1,.18-.12.18.18,0,0,1,.09.07l.42.65v-.82a.15.15,0,0,1,.16-.15.21.21,0,0,1,.1,0,.18.18,0,0,1,.05.11v.82l.42-.65a.13.13,0,0,1,.09-.07.11.11,0,0,1,.11,0,.13.13,0,0,1,.07.09.11.11,0,0,1,0,.11l-.66,1v1.06l.6-.86a.13.13,0,0,1,.09-.07.14.14,0,0,1,.11,0,.15.15,0,0,1,.07.1.23.23,0,0,1,0,.11L55.94,67l1.23,2.17,1.4-2-.7-1a.1.1,0,0,1,0-.1.13.13,0,0,1,.07-.1.14.14,0,0,1,.11,0,.15.15,0,0,1,.09.06l.6.88V65.48l-.68-1a.14.14,0,0,1,0-.11.1.1,0,0,1,.06-.09.12.12,0,0,1,.12,0,.18.18,0,0,1,.09.07l.42.65v-.82a.18.18,0,0,1,0-.11.18.18,0,0,1,.1,0A.21.21,0,0,1,59,64a.17.17,0,0,1,0,.11v.82l.43-.65a.13.13,0,0,1,.09-.07.14.14,0,0,1,.12,0,.15.15,0,0,1,.06.09.14.14,0,0,1,0,.11l-.68,1v1.06l.61-.86a.13.13,0,0,1,.09-.07.14.14,0,0,1,.11,0,.13.13,0,0,1,.07.1.23.23,0,0,1,0,.11L59.08,67l1.25,2.21a.16.16,0,0,1,0,.1.41.41,0,0,1-.05.09H62c.37,0,.65-.3.83-.87v-3.1a2.76,2.76,0,0,1-1.68-.23,1.61,1.61,0,0,1-.83-1.41,2.49,2.49,0,0,1,.57-2.13,1.66,1.66,0,0,1,.49-.32,1.35,1.35,0,0,1,1.83.32.36.36,0,0,1,.07.1.19.19,0,0,1,.05.13v2.95a1.26,1.26,0,0,0,1.11-1.34V58q.06-3.85,2.51-4.07a2.25,2.25,0,0,1,2,.68,3.4,3.4,0,0,1,.74,1.46c.07.27.13.56.18.88,0,0,0,.06,0,.09v.55h0v1.55a.26.26,0,0,1-.08.19.24.24,0,0,1-.18.07H67.05v0a.08.08,0,0,0,.07.09,2.11,2.11,0,0,1,.85.27h0c.13,0,.22.29.28.75,0,.12.06.18.15.19h.06l.35.07a.24.24,0,0,1,.15.09.23.23,0,0,1,.06.16v1.07h6.27a.28.28,0,0,1,.26.25,4.1,4.1,0,0,1-1,3h3V61a.26.26,0,0,1,.08-.19.24.24,0,0,1,.18-.07h.3q.12,0,.15-.18c.05-.47.15-.72.27-.76h0a2.17,2.17,0,0,1,.85-.27.07.07,0,0,0,.07-.09v0H74.07a.24.24,0,0,1-.18-.07.25.25,0,0,1-.08-.18.24.24,0,0,1,.07-.18l.65-.72H72.15l.53.74a.25.25,0,0,1,0,.18.28.28,0,0,1-.09.17.25.25,0,0,1-.17.06H70.61a.24.24,0,0,1-.26-.26.24.24,0,0,1,.07-.18.25.25,0,0,1,.19-.07H72l-.54-.75a.27.27,0,0,1,0-.18.25.25,0,0,1,.08-.16.23.23,0,0,1,.17-.07h3.47a.24.24,0,0,1,.18.07.3.3,0,0,1,.08.18.24.24,0,0,1-.07.18l-.65.73h5a.24.24,0,0,1,.18.07c.09.06.13.22.13.48a.56.56,0,0,1-.51.61h0a1.71,1.71,0,0,0-.64.18h0s0,.17,0,.39h0c-.06.45-.29.66-.67.64h0v4.42a.24.24,0,0,1-.26.26H74l-.34.41h6.42c.55,0,.84-.21.87-.71,0,0,0,0,0-.06V49.89a.25.25,0,0,1,.08-.18.24.24,0,0,1,.18-.07h14a.2.2,0,0,1,.13,0h1.65a.27.27,0,0,1,.26.26V55c.07.79.39,1.19,1,1.2s.88-.43.94-1.19V49.73a11.68,11.68,0,0,1-5.13-5.45c-.24.48-.42.84-.53,1.08h0c0,.06-.36.71-1,2h0l-.3.57a.24.24,0,0,1-.15.13.23.23,0,0,1-.2,0,.24.24,0,0,1-.13-.15.24.24,0,0,1,0-.2h0a.24.24,0,0,1,0-.14l.93-6.12a14.7,14.7,0,0,1-5.42-.08l1.13,6.19a.29.29,0,0,1,0,.16.25.25,0,0,1-.12.11.2.2,0,0,1-.17,0,13.94,13.94,0,0,0-6.15-.11.41.41,0,0,1-.16,0,.25.25,0,0,1-.11-.12.3.3,0,0,1,0-.16l1-4.76H79.78v8.9a.24.24,0,0,1-.25.25H73.87a.22.22,0,0,1-.17-.07.21.21,0,0,1-.08-.16c-.06-2.09-.09-3.52-.1-4.3v-.48h0c-.09-1.21-.69-1.82-1.79-1.83H71.6a2,2,0,0,0-1.81,1.84v4.75a.25.25,0,0,1-.08.18.24.24,0,0,1-.18.07H67.24a.24.24,0,0,1-.25-.25V38.66a3,3,0,0,1,0-1V35.1H60.83c0,1.25,0,3.31,0,6.15,0,2.3,0,4.29,0,6s0,3.13,0,4.19a.24.24,0,0,1-.07.18.25.25,0,0,1-.18.08H59a.23.23,0,0,1-.17-.08.25.25,0,0,1-.08-.18V31.63a3.67,3.67,0,0,1-.08-.75,5.19,5.19,0,0,0-.3-1,5.68,5.68,0,0,0-.37-.74c0,.42.1,1,.16,1.65A5.5,5.5,0,0,1,58,33.47v.22A2.71,2.71,0,0,1,58,34v0c0,.38,0,.72,0,1h0v0c0,.12,0,.51,0,1.18h0q0,2.78,0,11v3.9a.21.21,0,0,1-.07.17l-.06,0,0,0a.25.25,0,0,1-.18.08H57a.21.21,0,0,1-.17-.08,2.63,2.63,0,0,1-.6-1.46h0c-.1-.81-.18-1.42-.26-1.83a5.09,5.09,0,0,0-.19-.79h0a2.93,2.93,0,0,0-.34-.73l-.16-.17h0A1.51,1.51,0,0,0,54.13,46l-1.43.1-1.46.1c-.27,0-.52,0-.77,0a.38.38,0,0,1-.17-.08.24.24,0,0,1-.06-.17V22a.2.2,0,0,1,0-.11.27.27,0,0,1,.07-.08L54.15,19h-.37l-3.94,2.92V41.67a.12.12,0,0,1,0,.1.14.14,0,0,1-.11.06.12.12,0,0,1-.1-.06.12.12,0,0,1-.05-.1V21.83s0,0,0-.07,0,0,.06-.05L53.28,19h-.2l-3.74,2.7V40.48a1.05,1.05,0,0,1-1.09,1.19H43.86a.28.28,0,0,1-.18-.06.29.29,0,0,1-.07-.18V36.27a.52.52,0,0,0-.17-.17.38.38,0,0,0-.13.16v5.17a.24.24,0,0,1-.07.18.28.28,0,0,1-.18.06H38.42a.24.24,0,0,1-.17-.06.25.25,0,0,1-.08-.18v-2c0-.56-.35-.86-1-.91a1,1,0,0,0-1.1.93v2a.29.29,0,0,1-.07.18.28.28,0,0,1-.18.06h-2.5a.21.21,0,0,1-.16-.06.22.22,0,0,1-.08-.18v-9q.78-3.59,2.83-4.54a8.86,8.86,0,0,1,3.13-.79h.05a5.44,5.44,0,0,1,.57,0c.49,0,1,0,1.56,0h0a3.91,3.91,0,0,1,4.1,3.45.09.09,0,0,1,0,.05v4.94a6.54,6.54,0,0,0,2.32.68.26.26,0,0,1,.17.09.35.35,0,0,1,0,.18.23.23,0,0,1-.1.17.23.23,0,0,1-.18,0A6.91,6.91,0,0,1,45.36,36v2.09a1.07,1.07,0,0,0,.23.69,1,1,0,0,0,.67.19.9.9,0,0,0,.73-.65.23.23,0,0,1,.12-.15.25.25,0,0,1,.19,0,.23.23,0,0,1,.15.12.34.34,0,0,1,0,.2,1.36,1.36,0,0,1-1.14,1h0a1.26,1.26,0,0,1-1.43-1.37V35.77a4.38,4.38,0,0,1-2-2.65.21.21,0,0,1,0-.19.29.29,0,0,1,.15-.12.25.25,0,0,1,.19,0,.23.23,0,0,1,.12.15,4,4,0,0,0,1.51,2.19V30.56a3.46,3.46,0,0,0-3.63-3h0c-.54,0-1,0-1.52,0h0a4.63,4.63,0,0,0-.54,0,3.14,3.14,0,0,0-1.18.76h0a3.18,3.18,0,0,0,2.25,5.42,3.09,3.09,0,0,0,1.7-.48.21.21,0,0,1,.19,0,.19.19,0,0,1,.15.11.22.22,0,0,1,0,.18.23.23,0,0,1-.11.16,3.6,3.6,0,0,1-2,.56A3.68,3.68,0,0,1,37.62,28a1.51,1.51,0,0,1,.23-.21,7.09,7.09,0,0,0-1.72.56q-1.83.9-2.54,4.17v8.67h2V39.4A1.37,1.37,0,0,1,37.22,38c1,.06,1.43.53,1.45,1.39v1.75h1.95v-3a.19.19,0,0,1,0-.07c.13-.22.26-.33.4-.31s.28.09.41.31a.19.19,0,0,1,0,.07v3h1.34v-5a.2.2,0,0,1,0-.11q.27-.53.6-.48t.63.45a.33.33,0,0,1,0,.14v5h4.11a.61.61,0,0,0,.62-.68h0V21.55a.25.25,0,0,1,0-.11.13.13,0,0,1,.07-.08l3.9-2.82a.25.25,0,0,1,.15-.05h1.91a.3.3,0,0,1,.15.05.25.25,0,0,1,.09.13.17.17,0,0,1,0,.14.38.38,0,0,1-.09.13l-4.32,3.19V32.37a4.52,4.52,0,0,1,3.67,2A7.05,7.05,0,0,1,55.67,37c0,.21.09.42.14.64a10.55,10.55,0,0,1,.11,1.52,8.66,8.66,0,0,1-.25,2.14A7.17,7.17,0,0,1,54.41,44a5.22,5.22,0,0,1-1.88,1.61h.14l1.46-.11A2,2,0,0,1,55.6,46a1.64,1.64,0,0,1,.21.24h0a3.21,3.21,0,0,1,.42.87c.07.25.14.54.2.85s.16,1,.28,1.85h0A2.59,2.59,0,0,0,57.09,51h.23V50.8a.23.23,0,0,1,.07-.18l0,0V47.21c0-5.46,0-9.11,0-11h0c0-.94,0-1.46,0-1.58h0l-.06-.32a5.74,5.74,0,0,0-.68-1.61,2.44,2.44,0,0,0-1.29-1,6.14,6.14,0,0,0-3-.11.26.26,0,0,1-.15,0,.52.52,0,0,1-.11-.1.4.4,0,0,1,0-.15.2.2,0,0,1,.06-.14A5.54,5.54,0,0,1,53.3,30h0A3.22,3.22,0,0,1,55,29.52a1.75,1.75,0,0,1,.46.05,2.19,2.19,0,0,1,.33.12s0,0,0,0c-.18-.21-.36-.4-.53-.57h0A5.78,5.78,0,0,0,53.86,28h0A2.34,2.34,0,0,0,52,27.8a.22.22,0,0,1-.16,0,.19.19,0,0,1-.13-.1.21.21,0,0,1,0-.17,1.75,1.75,0,0,1,.88-1.24A2.57,2.57,0,0,1,54,25.81a4.23,4.23,0,0,1,2.52.85,13,13,0,0,0-.61-1.17,9.31,9.31,0,0,0-1.59-2,5.28,5.28,0,0,0-1.7-1.14.24.24,0,0,1-.13-.11.22.22,0,0,1,0-.16.28.28,0,0,1,.08-.15.25.25,0,0,1,.17-.06,1.57,1.57,0,0,1,.62-.31h0a2.16,2.16,0,0,1,.58-.09,4.34,4.34,0,0,1,4.22,2.74l0-.08a3.53,3.53,0,0,1,3.58-2.41A3.9,3.9,0,0,1,65,23.49Zm-2,14.39a.17.17,0,0,1-.1,0,.2.2,0,0,1-.05-.09.15.15,0,0,1,0-.11l.95-1.49a.16.16,0,0,1,.08-.06h.09a.13.13,0,0,1,.09.07l.8,1.49a.18.18,0,0,1,0,.1.19.19,0,0,1,0,.09.17.17,0,0,1-.1,0Zm.69,2.18a.14.14,0,0,1-.05.08.15.15,0,0,1-.09,0H61.71a.13.13,0,0,1-.09,0,.11.11,0,0,1,0-.09.12.12,0,0,1,0-.1l.94-1.49a.13.13,0,0,1,.08-.07h.1a.32.32,0,0,1,.09.08L63.59,40A.12.12,0,0,1,63.6,40.06Zm.33-.11.95-1.49a.11.11,0,0,1,.08-.07h.1a.19.19,0,0,1,.07.08L65.94,40a.17.17,0,0,1,0,.1.16.16,0,0,1-.06.08.13.13,0,0,1-.09,0H64.05a.18.18,0,0,1-.09,0,.15.15,0,0,1-.06-.09A.19.19,0,0,1,63.93,40Zm7.4,11.69h0c.58.57.59,1.34,0,2.33,0,0,0,.06-.08.06a.15.15,0,0,1-.19-.1.14.14,0,0,1,0-.11c.49-.84.5-1.49,0-2h0a1.82,1.82,0,0,1-.66-1.25,1.3,1.3,0,0,1,.68-1.07.14.14,0,0,1,.11,0,.21.21,0,0,1,.1.06.21.21,0,0,1,0,.12l-.07.09a1.05,1.05,0,0,0-.55.82A1.64,1.64,0,0,0,71.33,51.64Zm1.26.65h0c.58.56.59,1.34,0,2.32a.14.14,0,0,1-.09.08.25.25,0,0,1-.12,0,.16.16,0,0,1-.07-.09.14.14,0,0,1,0-.11c.48-.84.49-1.5,0-2h0a1.82,1.82,0,0,1-.66-1.25,1.29,1.29,0,0,1,.68-1.07.14.14,0,0,1,.11,0,.1.1,0,0,1,.09.06.14.14,0,0,1,0,.11.17.17,0,0,1-.07.1,1.06,1.06,0,0,0-.54.82A1.66,1.66,0,0,0,72.59,52.29Zm-2.06.35a.17.17,0,0,1,0,.22,1,1,0,0,0-.35.85,2,2,0,0,0,.65,1.07h0c.58.57.59,1.34,0,2.33a.1.1,0,0,1-.09.06.11.11,0,0,1-.11,0,.14.14,0,0,1-.08-.09.14.14,0,0,1,0-.11c.48-.84.49-1.49,0-2h0a2.28,2.28,0,0,1-.73-1.24,1.22,1.22,0,0,1,.43-1.11.12.12,0,0,1,.11,0A.13.13,0,0,1,70.53,52.64Zm21-7.43c-.19.47-.67.73-1.44.79a1.48,1.48,0,0,1-1.59-.85A3.19,3.19,0,0,0,91.48,45.21Zm-.68-1.73c0-.2.11-.31.33-.31s.33.11.33.31a.28.28,0,0,1-.06.18.32.32,0,0,1-.27.12.3.3,0,0,1-.3-.16Zm-1.87.12a.29.29,0,0,1-.24.12.27.27,0,0,1-.27-.16.73.73,0,0,0,0-.14.3.3,0,1,1,.6,0A.28.28,0,0,1,88.93,43.6Zm3.38,4.17c0-.05,0-.05,0,0ZM47.86,43.51a.8.8,0,0,0-.08-.16,2.26,2.26,0,0,0-.26.16l-.06,0-1,.59-.23.14c.21.5.42,1,.64,1.47a2.64,2.64,0,0,1,.2.6.69.69,0,0,1,0,.13.65.65,0,0,1-.75.44.47.47,0,0,1-.26-.09.76.76,0,0,1-.15-.23.61.61,0,0,1,.24-.54.74.74,0,0,1,.44-.12l.18,0-.63-1.46-.31-.73L47.19,43l.27-.15.06,0a.51.51,0,0,1,.16-.09l.62,1.46c.16.38.33.76.49,1.15a.6.6,0,0,1-.43.61.73.73,0,0,1-.53,0,.45.45,0,0,1-.2-.45.65.65,0,0,1,.48-.48h0a1.51,1.51,0,0,1,.37,0h0C48.27,44.48,48.07,44,47.86,43.51Zm-3.66-.25a.79.79,0,0,1-.71.46l.26.42c.35.51.69,1,1,1.55l0,0a.13.13,0,0,1-.09,0c-.42-.62-.86-1.25-1.31-1.87l-.11-.16a.8.8,0,0,1-.14-.3.58.58,0,0,1,0-.32l.15-.22,0,0a.53.53,0,0,1,.33-.17.73.73,0,0,1,.52.14h0a.43.43,0,0,1,.09.26,1.1,1.1,0,0,1,0,.18ZM41.63,44a.18.18,0,0,1-.05-.07.6.6,0,0,1-.12-.24c-.1.35-.19.7-.28,1.05a.64.64,0,0,1,0,.07c0,.17-.09.35-.13.52a2.26,2.26,0,0,1-.16.5c-.1.25-.32.34-.68.27A.3.3,0,0,1,40,46a.58.58,0,0,1-.31-.34V45.5c.08-.29.31-.41.69-.35h.06a.6.6,0,0,1,.34.26l.18-.64a.64.64,0,0,0,0-.07l.24-.94.18-.64h0a.17.17,0,0,1,.1.06v0a1.14,1.14,0,0,0,.27.77.73.73,0,0,1,.21.47.44.44,0,0,1,0,.26.07.07,0,0,1,0,0s0,0,0,0a.47.47,0,0,1-.23.13.34.34,0,0,0,.1-.13.24.24,0,0,0,0-.07l0-.08a.28.28,0,0,0,0-.13A1.35,1.35,0,0,0,41.63,44ZM46,22.23a.18.18,0,0,1-.09.06.16.16,0,0,1-.12,0,1.74,1.74,0,0,0-2.14,0,.1.1,0,0,1-.09,0,.13.13,0,0,1-.1,0,1.67,1.67,0,0,0-2.24,0,.23.23,0,0,1-.11,0,.13.13,0,0,1-.09-.07.11.11,0,0,1,0-.11.11.11,0,0,1,.06-.09A1.91,1.91,0,0,1,43.56,22,2,2,0,0,1,46,22s0,0,.07.09A.15.15,0,0,1,46,22.23Zm1.81,1.52a.18.18,0,0,1,.07.09.11.11,0,0,1,0,.11.13.13,0,0,1-.09.07.17.17,0,0,1-.12,0,1.7,1.7,0,0,0-2.13,0,.16.16,0,0,1-.1,0,.16.16,0,0,1-.09,0,1.51,1.51,0,0,0-1.58-.34,2.59,2.59,0,0,0-.67.36A.14.14,0,0,1,43,24a.15.15,0,0,1-.09-.06.11.11,0,0,1,0-.11.15.15,0,0,1,.06-.09,2.79,2.79,0,0,1,.74-.39,1.74,1.74,0,0,1,1.78.31A2,2,0,0,1,47.81,23.75Zm-5.53,1.39a1.79,1.79,0,0,1,1.44-.32,2.44,2.44,0,0,1,.93.39.13.13,0,0,1,.07.1.12.12,0,0,1,0,.1.17.17,0,0,1-.1.07.14.14,0,0,1-.11,0,2.51,2.51,0,0,0-.83-.35,1.59,1.59,0,0,0-1.31.34.17.17,0,0,1-.1,0,.09.09,0,0,1-.08,0,1.67,1.67,0,0,0-2.25,0,.15.15,0,0,1-.11,0,.21.21,0,0,1-.1-.06.14.14,0,0,1,0-.11.12.12,0,0,1,.06-.1A1.93,1.93,0,0,1,42.28,25.14ZM42.41,31a.61.61,0,0,1-.09.3.48.48,0,0,1-.41.19.44.44,0,0,1-.44-.27c0-.17,0-.24,0-.22a.5.5,0,0,1,.16-.39.48.48,0,0,1,.33-.12.51.51,0,0,1,.35.12A.53.53,0,0,1,42.41,31Zm5.46-20.33a.61.61,0,0,1,.43-.17.57.57,0,0,1,.42.17.6.6,0,0,1,.18.43.56.56,0,0,1-.18.42.54.54,0,0,1-.42.18.58.58,0,0,1-.43-.18.56.56,0,0,1-.18-.42A.6.6,0,0,1,47.87,10.62ZM38.42,9.13A.25.25,0,0,1,38.5,9a.21.21,0,0,1,.17-.07h7.84a.24.24,0,0,1,.18.07.28.28,0,0,1,.06.18v5.42a.3.3,0,0,1-.06.18.24.24,0,0,1-.18.07H38.67a.21.21,0,0,1-.17-.07.27.27,0,0,1-.08-.18Zm-2.61.23a.61.61,0,0,1,.43-.17.61.61,0,0,1,.42.17.58.58,0,0,1,.18.43.56.56,0,0,1-.18.42.57.57,0,0,1-.85,0,.55.55,0,0,1-.17-.42A.57.57,0,0,1,35.81,9.36Zm-.22,1.45a.21.21,0,0,1,.07-.17.23.23,0,0,1,.17-.08h1a.25.25,0,0,1,.18.08.21.21,0,0,1,.07.17v4.52a32.08,32.08,0,0,0,10.53,0V12.07a.21.21,0,0,1,.08-.16.2.2,0,0,1,.17-.08h1.08a.22.22,0,0,1,.18.08.21.21,0,0,1,.08.16v6a1,1,0,0,1,.24-.17,1.81,1.81,0,0,1,1.24-.2,2.18,2.18,0,0,1,1-1.61,4.29,4.29,0,0,1,4.7,0h0l.27.21a2.12,2.12,0,0,1,.62.9l.34,0a3.08,3.08,0,0,1,1.85.56h0a1.84,1.84,0,0,1,.22.17,1.58,1.58,0,0,1,.6,1.25,1.69,1.69,0,0,1,0,.23c1.07-.22,1.77,0,2.11.73a.25.25,0,0,1,0,.19.23.23,0,0,1-.12.15.26.26,0,0,1-.34-.11c-.29-.53-.91-.66-1.85-.4a2,2,0,0,1-.62.64h0l-.26.17a.24.24,0,0,1-.2,0,.26.26,0,0,1-.15-.12.23.23,0,0,1,0-.18.28.28,0,0,1,.12-.16l.21-.12v0a1.62,1.62,0,0,0,.49-.53v0h0a1.23,1.23,0,0,0,.08-.44,1.15,1.15,0,0,0-.43-.87l-.16-.14h0a2.62,2.62,0,0,0-1.57-.46,2.35,2.35,0,0,0-.47,0,.39.39,0,0,1-.18,0,.33.33,0,0,1-.11-.15,1.7,1.7,0,0,0-.54-.86,1.92,1.92,0,0,0-.22-.18h0a3.78,3.78,0,0,0-4.12,0,1.69,1.69,0,0,0-.8,1.38V18a.17.17,0,0,1,0,.14.25.25,0,0,1-.12.11.26.26,0,0,1-.15,0,1.7,1.7,0,0,0-1.19.08,1.22,1.22,0,0,0-.49.91.31.31,0,0,1-.1.15.23.23,0,0,1-.18.05.21.21,0,0,1-.16-.07.25.25,0,0,1-.06-.17V12.33h-.59v3.21a.27.27,0,0,1-.2.25,32.44,32.44,0,0,1-11.12,0,.24.24,0,0,1-.15-.09.25.25,0,0,1-.06-.16V11.06h-.47V16a.28.28,0,0,1-.06.18.29.29,0,0,1-.19.08.23.23,0,0,1-.17-.08.24.24,0,0,1-.07-.18ZM44.5,66.55l.18.06S44.59,66.62,44.5,66.55Zm66.78-1.68a.23.23,0,0,1-.06.13.28.28,0,0,1-.11.08l-14.29,4.6H85.42l-2.36.09a2.83,2.83,0,0,1-.14,1.67,1.09,1.09,0,0,1-.36.43,1.38,1.38,0,0,1-1.12.22h0a1.19,1.19,0,0,0-.69,0,.57.57,0,0,0-.16.11,2,2,0,0,0-.23,1.51.51.51,0,0,1,0,.13.27.27,0,0,1-.1.11h0l0,0-2.32,1.42a.09.09,0,0,1,0,0h0c-.6,1.9-1.42,3-2.45,3.34s-2.28-.07-3.73-1.33h-11c-1.36,2-2.83,2.65-4.43,1.87h0a10.11,10.11,0,0,1-.9-.61A5.31,5.31,0,0,1,53.4,76.3a.17.17,0,0,1,0-.14.18.18,0,0,1,.09-.13.24.24,0,0,1,.14,0H75.21a1.48,1.48,0,0,0,.92-.13.5.5,0,0,0,.13-.35v-.06H51.86a.37.37,0,0,1-.14,0,.47.47,0,0,1-.09-.12.22.22,0,0,1,0-.16L52,74h-.79A.2.2,0,0,1,51,74a6.33,6.33,0,0,1-2-4.72v0c0-.78,0-1.41,0-1.88a10.86,10.86,0,0,0-.21-2,.68.68,0,0,0-.34-.42h0a2.75,2.75,0,0,0-.66-.17h0c-.34,0-.68-.11-1-.18-.49-.07-.7-.4-.63-1s.59-.83,1.68-.74h9.86a3.29,3.29,0,0,0,.74-.1h0a.68.68,0,0,0,.28-.65.48.48,0,0,0-.06-.21.41.41,0,0,0-.2-.14H44.31a11.63,11.63,0,0,1-1.55-.07c-.85-.11-1.34-.35-1.45-.72h0a.68.68,0,0,1,0-.74.87.87,0,0,1,.74-.26H59.39c.51,0,.83-.11,1-.46a.5.5,0,0,0,0-.33.46.46,0,0,0-.33-.11H40.81c-.74,0-1.14-.23-1.22-.68a.79.79,0,0,1,.39-1,2.81,2.81,0,0,1-.18-.28c-.38-.58-.62-1-.74-1.19h0a2.59,2.59,0,0,1-.3-1.22,2.85,2.85,0,0,1,.2-1h0c0-.06.17-.4.44-1h0a1.34,1.34,0,0,0,.06-.12,1.6,1.6,0,0,1-1-1.72v-3.7a1.44,1.44,0,0,1-1.32.26h0A1.72,1.72,0,0,1,35.91,46v0h0a2.69,2.69,0,0,1-.06-.92,2.52,2.52,0,0,0-.36-1.52,1.09,1.09,0,0,0-1.06-.32A1.87,1.87,0,0,1,32,41.46a0,0,0,0,1,0,0c0-1.88,0-4.08,0-6.59,0-.49,0-1,0-1.41v-.08h0c0-.63,0-1.2,0-1.72A32.71,32.71,0,0,1,32.39,28a1.46,1.46,0,0,1,.7-1.09,3.06,3.06,0,0,1,1.22-.39l.46-.05V23.37A12.35,12.35,0,0,0,33.63,25a12,12,0,0,1-1.22,1.68h0a3.74,3.74,0,0,1-2.53.78c-.87.05-1.74.07-2.61,0,0,.05,0,.09,0,.13h0a1,1,0,0,0,.14.72.37.37,0,0,1,.12.07.56.56,0,0,1,0,.08l.08,0a3.44,3.44,0,0,0,1.35.07,2.87,2.87,0,0,1,1.67.22h0a1.49,1.49,0,0,1,.71,1.1V40.33a.22.22,0,0,1-.07.17.21.21,0,0,1-.16.07.23.23,0,0,1-.18,0,8.69,8.69,0,0,1-2.85-4.63c-1.23-.07-1.95-.94-2.14-2.62a3.82,3.82,0,0,1-.62-.25c-.68-.34-1-.77-1-1.27a1.22,1.22,0,0,1,.1-.45,1,1,0,0,1-.46-.82,1,1,0,0,1,.58-.9,2.56,2.56,0,0,1,2.48,0h0a1.2,1.2,0,0,1,.47.45,4.65,4.65,0,0,1,2.16.46c.66.34,1,.76,1,1.26s-.32.93-1,1.27a4.31,4.31,0,0,1-1.33.41,9.57,9.57,0,0,0,.21,2.17h0a8.1,8.1,0,0,0,2.32,4.15V30a1.15,1.15,0,0,0-.47-.77,2.83,2.83,0,0,0-1.37-.15A3.51,3.51,0,0,1,27.46,29a.92.92,0,0,1-.27-.16,6,6,0,0,1-1.41-.21h0a1,1,0,0,1-.71-.53h0a.5.5,0,0,1,0-.13h0a.86.86,0,0,1-.05-.23.43.43,0,0,0,0-.05,2,2,0,0,1,0-.36,14.58,14.58,0,0,1-2.07-.41,2.11,2.11,0,0,1-1.73-2.2c0-1.41,1-2.25,3-2.5a19,19,0,0,1,2.43-.08l2.09,0a3.94,3.94,0,0,0,2.58-.89,10.16,10.16,0,0,0,1.42-1.92,6.77,6.77,0,0,1,1.7-2,5.65,5.65,0,0,1,3.43-.94,2,2,0,0,1,1,.23.23.23,0,0,1,.12.15s0,0,0,0a.15.15,0,0,1,0,.06s.06.13.06.34a.66.66,0,0,1,0,.15,5.17,5.17,0,0,1,2.3.28,2,2,0,0,1,1.4,2.06c0,.89-.86,1.41-2.68,1.55,0,.49,0,.83-.08,1a5.67,5.67,0,0,1-.14.89,1.17,1.17,0,0,1-1.47.93h-.06v.49c-.11,1.16-.47,1.85-1.11,2.09a4.56,4.56,0,0,1-1.37.31h0c-.61.05-1.06.1-1.35.14a3,3,0,0,0-1,.31,1,1,0,0,0-.47.74,35.47,35.47,0,0,0-.27,3.56c0,.52,0,1.08-.06,1.7v.09h0c0,.44,0,.91,0,1.4q-.08,3.75,0,6.55a1.45,1.45,0,0,0,1.88,1.31,1.47,1.47,0,0,1,1.5.49,2.77,2.77,0,0,1,.48,1.86v0a2.52,2.52,0,0,0,0,.62,2,2,0,0,0,2.13-.32.29.29,0,0,1,.13-.08.23.23,0,0,1,.14,0,.27.27,0,0,1,.12.09.24.24,0,0,1,.05.14v5.3a1.19,1.19,0,0,0,.73,1.26c.3-.79.65-2,1.08-3.57a2.16,2.16,0,0,1,.45-1,.24.24,0,0,1,.18-.07H45a.28.28,0,0,1,.13,0,.76.76,0,0,1,.09.09l.48.81h8.49a.27.27,0,0,1,.12,0,.32.32,0,0,1,.09.08l.3.41,0,.05c.39.65.69,1.15.91,1.5l.19.27a8.18,8.18,0,0,0,.93,1.23.21.21,0,0,1,.07.13h0l8.19.1a.2.2,0,0,1,.13,0,.22.22,0,0,1,.09.1.28.28,0,0,1,0,.13q-.14,2-2.83,3.58c-.68.48-1,.9-1,1.27l0,0a.28.28,0,0,1,.07.17.29.29,0,0,1-.07.18.24.24,0,0,1-.18.07h-21c-.26.14-.37.31-.35.49s.33.32.75.32H60.08a.78.78,0,0,1,.7.31.82.82,0,0,1,0,.78c-.19.6-.68.87-1.49.79H42.1a.58.58,0,0,0-.35.08.39.39,0,0,0,0,.25h0c.17.33,1,.49,2.53.47H58.54a.8.8,0,0,1,.53.41h0a1.1,1.1,0,0,1,.1.42,1.08,1.08,0,0,1-.56,1.1h0a2.92,2.92,0,0,1-.91.15H47.76c-.71-.06-1.09,0-1.16.3s0,.39.23.43.67.13,1,.18h0a2.59,2.59,0,0,1,.81.23,1.12,1.12,0,0,1,.6.74,9.77,9.77,0,0,1,.22,2.16c0,.47,0,1.09,0,1.88v0a6,6,0,0,0,1.82,4.29h1a.3.3,0,0,1,.15,0,.27.27,0,0,1,.09.12.19.19,0,0,1,0,.15l-.32,1.08h5.71a2.24,2.24,0,0,1-.57-.31.27.27,0,0,1-.17.06H53.06a.25.25,0,0,1-.15,0,.31.31,0,0,1-.1-.15.22.22,0,0,1,0-.16,1.83,1.83,0,0,1,.13-.24h0a9.6,9.6,0,0,1,.55-.89H51.56a.24.24,0,0,1-.14,0,.27.27,0,0,1-.1-.11.26.26,0,0,1,0-.15.35.35,0,0,1,.08-.13,8,8,0,0,1,1.68-1.17,7.13,7.13,0,0,1,2.32-.77,6.29,6.29,0,0,1,1.15-.08l.28-.27a.25.25,0,0,1,.17-.08h5a.3.3,0,0,1,.15.05l.6.43,2,0,.93-1.12.09-.07h.82V68.33a.21.21,0,0,1,.08-.17.21.21,0,0,1,.17-.07h.7v-.36H67a.21.21,0,0,1-.17-.07.25.25,0,0,1-.08-.18.21.21,0,0,1,.08-.17.21.21,0,0,1,.17-.07h1.69a.24.24,0,0,1,.25.24.29.29,0,0,1-.07.18.24.24,0,0,1-.18.07h-.59v.46l2,1.12H71.9a.24.24,0,0,1,.18.07l.68.66,2.64,0V69a.24.24,0,0,1,.07-.17.24.24,0,0,1,.18-.08h4.5a.23.23,0,0,1,.14,0,.31.31,0,0,1,.09.11.25.25,0,0,1,0,.15l-.31,1.84a.29.29,0,0,1-.08.14.25.25,0,0,1-.16.06.77.77,0,0,0-.3.06c-.34.2-.46.76-.35,1.68l0,.27a.29.29,0,0,1,0,.16.35.35,0,0,1-.11.1l-1.19.5h-.08l0,0h0a2.11,2.11,0,0,1-.38.48h0a2.35,2.35,0,0,1-.71.48v.26a2.15,2.15,0,0,1,0,.34h0a.8.8,0,0,1-.31.73,1.75,1.75,0,0,1-1.27.24H54a5.08,5.08,0,0,0,1.58,1.91h0a7.7,7.7,0,0,0,.84.57q2.09.93,3.87-1.81a.14.14,0,0,1,.09-.08.27.27,0,0,1,.12,0h5.63v0h5.63a.21.21,0,0,1,.17.08l0,0h0c1.29,1.13,2.38,1.55,3.29,1.26s1.63-1.37,2.18-3.15a.18.18,0,0,1,.06-.09l.06,0,2.27-1.39A2.13,2.13,0,0,1,80.16,72a1.07,1.07,0,0,1,.44-.32,1.73,1.73,0,0,1,1-.08,1,1,0,0,0,.72-.12.78.78,0,0,0,.1-.15,2.93,2.93,0,0,0,0-1.71.24.24,0,0,1,0-.14.19.19,0,0,1,.08-.1.25.25,0,0,1,.22-.14h14l14.11-4.55L112,56.51l-3.11.78c-.37.13-.6.49-.69,1.1h0l-1.17,6.91-.06.12a.37.37,0,0,1-.12.07l-1.35.42a.22.22,0,0,1-.16,0,.18.18,0,0,1-.12-.1.35.35,0,0,1,0-.17l1.33-7.75-2.91.73h0c-.44.08-.69.41-.74,1v0L101.72,67a.34.34,0,0,1-.06.12.19.19,0,0,1-.11.07l-1.35.42a.43.43,0,0,1-.16,0,.28.28,0,0,1-.13-.11.26.26,0,0,1,0-.17l1.29-8.09c-1.61.29-2.62.5-3,.61a2.54,2.54,0,0,0-.79.31h0a2.36,2.36,0,0,0-.43.61h0a3.77,3.77,0,0,0-.34.89c-.06.2-.12.43-.17.68h0a.11.11,0,0,1,0,.06c-.23,1-.36,1.57-.39,1.75a.82.82,0,0,1,.31.15h0a1.33,1.33,0,0,1,.44,1.15,19.55,19.55,0,0,1-.59,2.94.8.8,0,0,1-.4.41h0a4.32,4.32,0,0,1-1.24.09l-5.61,0h0c-1-.08-1.5-.48-1.54-1.2v-1l-.28,0H86.9a6.71,6.71,0,0,1-3.84-.87,2.76,2.76,0,0,1-1.44-2.34A2,2,0,0,1,83,61.64a5.69,5.69,0,0,1,.55-.23,12.18,12.18,0,0,1,3.88-.63,4.58,4.58,0,0,1,2.94.68,1.53,1.53,0,0,1,.18.18.59.59,0,0,1,.07.76,2,2,0,0,1-1,.76,1.29,1.29,0,0,0-.75.69,1.37,1.37,0,0,0,.18,1c.28.54.28,1,0,1.27a1.87,1.87,0,0,1-1.2.52v1c0,.44.41.69,1.07.74l5.59,0a4.75,4.75,0,0,0,1,0,1.24,1.24,0,0,0,.37-.76c0-.22.08-.43.12-.61a8.25,8.25,0,0,0,.21-1.46,1.13,1.13,0,0,0-.24-.83l-.1,0c-.06.32-.1.65-.13,1-.09.93-.14,1.42-.16,1.47a1.09,1.09,0,0,1-.73.84h0a6.21,6.21,0,0,1-1.78.16,6.66,6.66,0,0,1-1.36-.1,1.8,1.8,0,0,1-.63-.23,1.31,1.31,0,0,1-.28-.24h0A3.84,3.84,0,0,1,90.24,65a2.64,2.64,0,0,1,.06-.45c0-.1,0-.19,0-.25a.29.29,0,0,1,.08-.14.27.27,0,0,1,.17-.06h4.56a1.93,1.93,0,0,1,.34,0l.3-1.33h0a4.64,4.64,0,0,1,.12-.47.11.11,0,0,0,0,0c0-.21.09-.4.14-.57a4.51,4.51,0,0,1,.42-1.13,2.73,2.73,0,0,1,.55-.77,2.55,2.55,0,0,1,1-.42c.44-.12,1.58-.34,3.42-.67a.43.43,0,0,1,.16,0,.38.38,0,0,1,.11.11.31.31,0,0,1,0,.16L100.43,67l.82-.25,1.13-7.18c.07-.85.46-1.32,1.14-1.42h0l3.26-.81a.18.18,0,0,1,.16,0,.31.31,0,0,1,.12.11.41.41,0,0,1,0,.16l-1.33,7.73.81-.25,1.15-6.77h0c.13-.86.48-1.36,1.05-1.51h0l3.48-.87a.22.22,0,0,1,.16,0,.25.25,0,0,1,.12.11.29.29,0,0,1,0,.16Z"></path><path class="e8875d65-755a-4ddb-b103-1689084b6f50" d="M60.45,72.78a1.78,1.78,0,0,0-3-1.27h0a1.75,1.75,0,0,0-.51,1.27A1.71,1.71,0,0,0,57.41,74a1.79,1.79,0,0,0,2.52,0A1.71,1.71,0,0,0,60.45,72.78Zm-.89.86a1.16,1.16,0,0,1-.86.36,1.21,1.21,0,0,1-.86-.35h0a1.13,1.13,0,0,1-.35-.85,1.18,1.18,0,0,1,.35-.87,1.21,1.21,0,0,1,.86-.35,1.21,1.21,0,0,1,1.22,1.22A1.14,1.14,0,0,1,59.56,73.64Z"></path><path class="e8875d65-755a-4ddb-b103-1689084b6f50" d="M57.05,71.16a2.2,2.2,0,0,1,.34-.28H57.1l-.28.28a.24.24,0,0,1-.13.07,2.32,2.32,0,0,0-.39.18,5.37,5.37,0,0,0-.73.43h0a6,6,0,0,0-1.36,1.27h0a8.38,8.38,0,0,0-.73,1.07h3.4a2.19,2.19,0,0,1-.48-1.41A2.23,2.23,0,0,1,57.05,71.16Z"></path><path class="e8875d65-755a-4ddb-b103-1689084b6f50" d="M76.41,74.48a1.94,1.94,0,0,0,.68-.44,1.69,1.69,0,0,0,.44-.7A1.8,1.8,0,0,0,75.83,71a1.75,1.75,0,0,0-1.26.52h0A1.72,1.72,0,0,0,74,72.78a1.74,1.74,0,0,0,.21.84l.14.22,0,0h0l0,0h0a.08.08,0,0,1,0,0,.17.17,0,0,0,.06.06,1.71,1.71,0,0,0,1.26.52h0a2.09,2.09,0,0,0,.51-.07ZM75.85,74a1.17,1.17,0,0,1-.85-.35h0a1.14,1.14,0,0,1-.36-.85,1.19,1.19,0,0,1,.36-.87,1.22,1.22,0,0,1,1.71,0h0a1.22,1.22,0,0,1,.35.87A1.23,1.23,0,0,1,75.85,74Z"></path><path class="e8875d65-755a-4ddb-b103-1689084b6f50" d="M59.34,72.14a.85.85,0,0,0-.64-.27.9.9,0,0,0-.91.92.94.94,0,0,0,.26.65h0a.9.9,0,0,0,.64.26.87.87,0,0,0,.64-.26.9.9,0,0,0,.28-.65.88.88,0,0,0-.28-.65Zm.09.65a.73.73,0,0,1-1.24.5.69.69,0,0,1-.21-.5.72.72,0,0,1,1.23-.52A.71.71,0,0,1,59.43,72.79Z"></path><path class="e8875d65-755a-4ddb-b103-1689084b6f50" d="M74.21,74.39l0,0H62.24a.29.29,0,0,1-.18-.07.29.29,0,0,1-.08-.19.23.23,0,0,1,.08-.17.24.24,0,0,1,.18-.07h.2a.5.5,0,0,0-.09-.25c-.2-.27-.63-.4-1.3-.39h0a.27.27,0,0,1-.12,0,2.2,2.2,0,0,1-.63,1.18h0a2.49,2.49,0,0,1-.84.55H75a2.14,2.14,0,0,1-.54-.32A1.84,1.84,0,0,1,74.21,74.39Z"></path><path class="e8875d65-755a-4ddb-b103-1689084b6f50" d="M76.51,72.14h0a.93.93,0,0,0-.66-.27.92.92,0,0,0-.91.92.91.91,0,0,0,.27.65h0a.9.9,0,0,0,.64.26.89.89,0,0,0,.92-.91A.91.91,0,0,0,76.51,72.14Zm-.15,1.15a.69.69,0,0,1-.51.21.71.71,0,0,1-.51-.21.72.72,0,0,1,0-1,.71.71,0,0,1,.51-.21.72.72,0,0,1,.51,1.23Z"></path></g></g></svg>